<svg width="128" height="64" viewBox="0 0 128 64" fill="none" xmlns="http://www.w3.org/2000/svg">
<g clip-path="url(#clip0_1000_6196)">
<path d="M7.83876 33.8432L12.8163 38.8152L17.7959 33.8412L20.6925 36.7305L20.6905 36.7326L12.8163 44.6L4.94211 36.7366L4.93806 36.7326L7.83876 33.8432ZM15.7534 31.799H15.7555L15.7534 31.801L12.8163 34.7369L9.87916 31.8051L9.87512 31.799L10.3933 31.2814L10.6443 31.0327L12.8163 28.8631L15.7534 31.799ZM19.8365 31.8012L22.7321 28.9088L25.6277 31.8012L22.7321 34.6934L19.8365 31.8012ZM0 31.8004L2.89563 28.908L5.79107 31.8004L2.89563 34.6928L0 31.8004ZM7.83876 29.7568L12.8163 24.7868L17.7959 29.7609L20.6905 26.8674L12.8163 19L4.94211 26.8654L7.83876 29.7568Z" fill="#F5F5F5"/>
<path d="M30.1406 25.2031H36.44C38.0027 25.2031 39.1848 25.6075 39.9864 26.4163C40.5965 27.0199 40.9325 27.8476 40.9155 28.7052V28.7436C40.921 29.0913 40.8724 29.4377 40.7718 29.7707C40.6821 30.0572 40.552 30.3296 40.3852 30.5795C40.2297 30.8151 40.0417 31.0276 39.8265 31.2104C39.6164 31.3911 39.386 31.547 39.1403 31.6754C39.8489 31.9221 40.4864 32.3386 40.9965 32.8886C41.4473 33.4007 41.6726 34.1084 41.6726 35.0116V35.0501C41.6853 35.614 41.5624 36.1731 41.3143 36.6798C41.0738 37.1466 40.7212 37.5468 40.288 37.8444C39.7983 38.1724 39.253 38.4087 38.6788 38.542C37.9964 38.7035 37.297 38.7816 36.5958 38.7745H30.1406V25.2031ZM35.8084 30.6907C36.3533 30.717 36.8958 30.5999 37.3812 30.351C37.7668 30.126 37.9919 29.7 37.9602 29.2551V29.2167C37.9806 28.8081 37.7901 28.4162 37.4561 28.1794C37.1201 27.9409 36.6349 27.8216 36.0007 27.8216H33.0535V30.6907H35.8084ZM36.6039 36.1601C37.1468 36.1904 37.6875 36.0663 38.1626 35.8022C38.5391 35.5606 38.7551 35.1321 38.7253 34.6861V34.6477C38.7401 34.2249 38.5433 33.8211 38.201 33.572C37.8529 33.3025 37.2901 33.1676 36.5128 33.1676H33.0535V36.1601H36.6039Z" fill="#F5F5F5"/>
<path d="M45.4219 25.2031H48.4116V38.7785H45.4219V25.2031Z" fill="#F5F5F5"/>
<path d="M52.9375 25.2031H55.6945L62.0667 33.5579V25.2031H65.018V38.7785H62.4736L55.8929 30.1488V38.7785H52.9375V25.2031Z" fill="#F5F5F5"/>
<path d="M74.0757 25.1055H76.8286L82.6523 38.7779H79.5309L78.2881 35.7329H72.5413L71.2985 38.7779H68.25L74.0757 25.1055ZM77.2213 33.0962L75.4117 28.6924L73.6101 33.0962H77.2213Z" fill="#F5F5F5"/>
<path d="M85.875 25.2031H88.632L95.0002 33.5579V25.2031H97.9514V38.7785H95.407L88.8263 30.1488V38.7785H85.875V25.2031Z" fill="#F5F5F5"/>
<path d="M108.722 39.0176C107.769 39.0257 106.824 38.8415 105.944 38.4757C104.272 37.7858 102.948 36.4493 102.275 34.7715C101.923 33.9025 101.745 32.9732 101.75 32.0358V31.9974C101.735 30.1505 102.447 28.3696 103.732 27.0416C104.365 26.3927 105.122 25.8781 105.959 25.5291C106.869 25.1526 107.846 24.9648 108.831 24.9771C109.414 24.9729 109.995 25.0249 110.568 25.1328C111.058 25.2254 111.537 25.3684 111.997 25.5595C112.415 25.7352 112.812 25.9562 113.181 26.2186C113.541 26.4746 113.88 26.7601 114.193 27.0719L112.292 29.2637C111.807 28.816 111.262 28.4371 110.673 28.1375C110.095 27.8613 109.46 27.7227 108.819 27.7331C107.74 27.7215 106.707 28.1741 105.985 28.9745C105.631 29.3694 105.353 29.8268 105.167 30.3232C104.972 30.8477 104.874 31.4033 104.878 31.963V32.0014C104.876 32.5603 104.974 33.1149 105.167 33.6392C105.351 34.1374 105.626 34.5974 105.977 34.9959C106.693 35.8063 107.728 36.2671 108.811 36.2576C109.492 36.2791 110.169 36.1325 110.78 35.831C111.362 35.5142 111.901 35.1225 112.381 34.6664L114.284 36.5872C113.948 36.9514 113.585 37.2894 113.197 37.5982C112.816 37.8991 112.403 38.156 111.964 38.3645C111.497 38.5841 111.005 38.7465 110.499 38.8478C109.914 38.9648 109.318 39.0218 108.722 39.0176Z" fill="#F5F5F5"/>
<path d="M117.812 25.2031H128.041V27.86H120.754V30.6139H127.17V33.2707H120.764V36.1217H128.142V38.7785H117.819L117.812 25.2031Z" fill="#F5F5F5"/>
</g>
<defs>
<clipPath id="clip0_1000_6196">
<rect width="128" height="64" fill="white"/>
</clipPath>
</defs>
</svg>
