<svg width="240" height="120" viewBox="0 0 240 120" fill="none" xmlns="http://www.w3.org/2000/svg">
<g clip-path="url(#clip0_1000_5436)">
<path d="M14.6977 63.831L24.0306 73.1535L33.3672 63.8272L38.7984 69.2448L38.7946 69.2486L24.0306 84L9.26646 69.2561L9.25887 69.2486L14.6977 63.831ZM29.5377 59.9981H29.5415L29.5377 60.0019L24.0306 65.5067L18.5234 60.0095L18.5158 59.9981L19.4875 59.0276L19.9581 58.5613L24.0306 54.4933L29.5377 59.9981ZM37.1934 60.0023L42.6227 54.579L48.052 60.0023L42.6227 65.4252L37.1934 60.0023ZM0 60.0008L5.42932 54.5775L10.8582 60.0008L5.42932 65.424L0 60.0008ZM14.6977 56.169L24.0306 46.8503L33.3672 56.1766L38.7946 50.7514L24.0306 36L9.26646 50.7477L14.6977 56.169Z" fill="#F5F5F5"/>
<path d="M56.5234 47.6328H68.3347C71.2648 47.6328 73.4813 48.391 74.9842 49.9075C76.1282 51.0392 76.7582 52.5913 76.7263 54.1991V54.2711C76.7366 54.9232 76.6455 55.5727 76.4569 56.1971C76.2887 56.7343 76.0447 57.2449 75.7319 57.7135C75.4405 58.1552 75.0879 58.5537 74.6844 58.8964C74.2905 59.2353 73.8585 59.5276 73.3978 59.7683C74.7265 60.2309 75.9217 61.0118 76.8782 62.043C77.7234 63.0034 78.1458 64.3303 78.1458 66.0238V66.0958C78.1697 67.1532 77.9393 68.2014 77.474 69.1515C77.0231 70.0269 76.362 70.7771 75.5498 71.3352C74.6317 71.9501 73.6092 72.3933 72.5324 72.6432C71.253 72.9461 69.9417 73.0924 68.627 73.0791H56.5234V47.6328ZM67.1505 57.922C68.1723 57.9713 69.1894 57.7518 70.0996 57.2851C70.8226 56.8632 71.2446 56.0644 71.1851 55.2303V55.1583C71.2234 54.3921 70.8662 53.6574 70.24 53.2134C69.61 52.7661 68.7002 52.5424 67.5111 52.5424H61.985V57.922H67.1505ZM68.6421 68.1772C69.6601 68.234 70.6738 68.0012 71.5646 67.5061C72.2705 67.0531 72.6755 66.2497 72.6197 65.4134V65.3414C72.6474 64.5486 72.2785 63.7915 71.6367 63.3245C70.9839 62.8191 69.9288 62.5662 68.4714 62.5662H61.985V68.1772H68.6421Z" fill="#F5F5F5"/>
<path d="M85.1875 47.6328H90.7933V73.0867H85.1875V47.6328Z" fill="#F5F5F5"/>
<path d="M99.2656 47.6328H104.435L116.383 63.2979V47.6328H121.917V73.0867H117.146L104.807 56.906V73.0867H99.2656V47.6328Z" fill="#F5F5F5"/>
<path d="M138.892 47.4492H144.054L154.973 73.0851H149.121L146.79 67.3756H136.015L133.685 73.0851H127.969L138.892 47.4492ZM144.79 62.4319L141.397 54.1748L138.019 62.4319H144.79Z" fill="#F5F5F5"/>
<path d="M161.031 47.6328H166.201L178.141 63.2979V47.6328H183.675V73.0867H178.904L166.565 56.906V73.0867H161.031V47.6328Z" fill="#F5F5F5"/>
<path d="M203.853 73.534C202.067 73.5491 200.295 73.2038 198.646 72.5179C195.51 71.2244 193.027 68.7184 191.765 65.5725C191.105 63.9431 190.771 62.2007 190.782 60.4431V60.371C190.752 56.9082 192.088 53.5689 194.497 51.0789C195.683 49.8623 197.104 48.8974 198.672 48.2431C200.379 47.5372 202.211 47.185 204.058 47.2081C205.15 47.2001 206.241 47.2976 207.314 47.5C208.233 47.6737 209.131 47.9417 209.994 48.3C210.777 48.6294 211.522 49.0438 212.214 49.5359C212.89 50.0158 213.525 50.5512 214.112 51.1358L210.548 55.2454C209.637 54.406 208.616 53.6956 207.512 53.1337C206.427 52.6158 205.237 52.3561 204.035 52.3755C202.013 52.3539 200.076 53.2023 198.722 54.7032C198.057 55.4437 197.538 56.3012 197.188 57.232C196.823 58.2154 196.639 59.2572 196.646 60.3066V60.3786C196.642 61.4265 196.826 62.4664 197.188 63.4495C197.533 64.3836 198.048 65.2461 198.707 65.9933C200.05 67.5128 201.99 68.3769 204.02 68.359C205.298 68.3992 206.566 68.1244 207.713 67.5591C208.805 66.965 209.814 66.2307 210.715 65.3754L214.283 68.977C213.653 69.6598 212.972 70.2937 212.245 70.8726C211.53 71.4367 210.755 71.9186 209.933 72.3094C209.057 72.7212 208.135 73.0256 207.185 73.2155C206.089 73.435 204.972 73.5419 203.853 73.534Z" fill="#F5F5F5"/>
<path d="M220.906 47.6328H240.084V52.6144H226.421V57.778H238.452V62.7596H226.44V68.1051H240.274V73.0867H220.918L220.906 47.6328Z" fill="#F5F5F5"/>
</g>
<defs>
<clipPath id="clip0_1000_5436">
<rect width="240" height="120" fill="white"/>
</clipPath>
</defs>
</svg>
