<svg width="104" height="64" viewBox="0 0 104 64" fill="none" xmlns="http://www.w3.org/2000/svg">
<path fill-rule="evenodd" clip-rule="evenodd" d="M21.3471 23.1506L21.4783 23.9719C21.5766 24.7275 21.6258 25.4832 21.6094 26.2552C21.6094 27.9472 21.4127 29.6227 21.0192 31.2654C20.4945 33.483 19.5764 35.602 18.3139 37.5075C16.8547 39.6759 14.7397 41.7949 11.6737 43.5362L11.2966 43.7497L10.9195 43.5362C7.8535 41.8278 5.73846 39.6923 4.27925 37.5075C3.0004 35.602 2.09864 33.4994 1.57398 31.2654C1.18048 29.6227 0.983737 27.9472 0.983737 26.2552C0.983737 25.4996 1.01653 24.7275 1.1149 23.9719L1.22967 23.1506C1.24607 23.0848 1.24607 23.0191 1.22967 22.9534C1.21328 22.8877 1.19688 22.822 1.14769 22.7727C1.1149 22.7235 1.06571 22.6742 1.01653 22.6413C0.967341 22.6085 0.901758 22.592 0.852571 22.5756C0.786989 22.5592 0.721407 22.5592 0.655825 22.5756C0.590242 22.592 0.52466 22.6249 0.475473 22.6578C0.426286 22.6906 0.377099 22.7399 0.344308 22.7892C0.311516 22.8549 0.295121 22.9206 0.278725 22.9863L0.147561 23.8076C0.0491871 24.6125 0 25.4339 0 26.2552C0 28.0293 0.213143 29.787 0.623034 31.5118C0.901759 32.6781 1.27886 33.8279 1.75433 34.9285C2.2298 36.0291 2.80365 37.0804 3.47587 38.0825C5.01706 40.3822 7.24686 42.6327 10.4604 44.4068L11.067 44.7517C11.149 44.7846 11.231 44.801 11.313 44.801C11.395 44.801 11.4769 44.7846 11.5589 44.7517L12.1655 44.4068C15.3627 42.6163 17.6089 40.3658 19.1501 38.0825C20.4945 36.0784 21.4619 33.8444 22.0029 31.5118C22.4128 29.787 22.6096 28.0293 22.6096 26.2552C22.6096 25.4339 22.5604 24.6125 22.462 23.7912L22.3308 22.9699C22.3144 22.9042 22.298 22.8384 22.2652 22.7727C22.2325 22.7235 22.1833 22.6742 22.1341 22.6413C22.0849 22.6085 22.0193 22.5756 21.9537 22.5592C21.8881 22.5428 21.8226 22.5428 21.757 22.5592C21.6914 22.5756 21.6258 22.592 21.5602 22.6249C21.511 22.6578 21.4619 22.707 21.4291 22.7563C21.3963 22.8056 21.3635 22.8713 21.3471 22.937V23.1506Z" fill="#F5F5F5"/>
<path fill-rule="evenodd" clip-rule="evenodd" d="M3.98241 22.5913L11.3276 20.2752L18.8204 22.6406C18.886 22.6571 18.9516 22.657 19.0172 22.657C19.0828 22.657 19.1484 22.6406 19.2139 22.6078C19.2795 22.5749 19.3287 22.5421 19.3779 22.4764C19.4271 22.4271 19.4599 22.3614 19.4599 22.2957C19.4763 22.23 19.4763 22.1642 19.4763 22.0985C19.4763 22.0328 19.4599 21.9671 19.4271 21.9014C19.3943 21.8357 19.3615 21.7864 19.3123 21.7372C19.2631 21.6879 19.1975 21.655 19.132 21.655L11.4752 19.2239C11.3768 19.191 11.2785 19.191 11.1801 19.2239L3.70368 21.5893C3.6381 21.6057 3.58891 21.6386 3.52333 21.6714C3.47414 21.7207 3.42496 21.77 3.40856 21.8357C3.37577 21.9014 3.35938 21.9671 3.35938 22.0328C3.35938 22.0985 3.35937 22.1642 3.37577 22.23C3.39217 22.2957 3.42496 22.3614 3.45775 22.4106C3.49054 22.4599 3.55612 22.5092 3.6217 22.5421C3.67089 22.5749 3.73647 22.5913 3.81845 22.5913C3.85124 22.6078 3.91683 22.6078 3.98241 22.5913Z" fill="#F5F5F5"/>
<path fill-rule="evenodd" clip-rule="evenodd" d="M0.361435 23.2985L10.871 44.5218C10.9038 44.604 10.9694 44.6697 11.035 44.719C11.1989 44.8175 11.3957 44.8175 11.5596 44.719C11.6416 44.6697 11.7072 44.604 11.7564 44.5218L18.1671 32.1196L18.1835 32.1032L22.2824 23.282C22.3152 23.2163 22.3316 23.1506 22.3316 23.0849C22.3316 23.0192 22.3316 22.9535 22.2988 22.8878C22.2824 22.8221 22.2496 22.7564 22.2004 22.7071C22.1676 22.6578 22.102 22.6085 22.0528 22.5757C22.0036 22.5428 21.9381 22.5264 21.8561 22.5264C21.7905 22.5264 21.7249 22.5264 21.6593 22.5428C21.5938 22.5593 21.5282 22.5921 21.479 22.6414C21.4298 22.6907 21.3806 22.74 21.3642 22.8057L17.2653 31.6268L11.2973 43.1748L1.2304 22.8057C1.19761 22.7564 1.14843 22.6907 1.11563 22.6414C1.06645 22.5921 1.00086 22.5593 0.935282 22.5428C0.869699 22.51 0.804117 22.51 0.738535 22.5264C0.672952 22.5264 0.60737 22.5428 0.541788 22.5757C0.492601 22.6085 0.427018 22.6578 0.394227 22.7071C0.361436 22.7564 0.328645 22.8221 0.312249 22.8878C0.295854 22.9535 0.279458 23.0192 0.295854 23.0849C0.312249 23.1671 0.328644 23.2328 0.361435 23.2985Z" fill="#F5F5F5"/>
<path fill-rule="evenodd" clip-rule="evenodd" d="M5.39363 32.76H17.1001C17.1657 32.76 17.2313 32.7435 17.2968 32.7271C17.3624 32.7107 17.4116 32.6614 17.4444 32.6121C17.4936 32.5629 17.5264 32.5136 17.5428 32.4479C17.592 32.3165 17.592 32.185 17.5428 32.0536C17.5264 31.9879 17.4772 31.9386 17.4444 31.8894C17.3952 31.8401 17.346 31.8072 17.2968 31.7744C17.2313 31.7579 17.1657 31.7415 17.1001 31.7415H5.39363C5.32805 31.7415 5.26247 31.7579 5.19689 31.7744C5.1313 31.7908 5.08212 31.8401 5.04933 31.8894C5.00014 31.9386 4.96735 31.9879 4.95095 32.0536C4.90177 32.185 4.90177 32.3165 4.95095 32.4479C4.96735 32.5136 5.00014 32.5629 5.04933 32.6121C5.09851 32.6614 5.1477 32.6943 5.19689 32.7271C5.26247 32.7435 5.32805 32.7435 5.39363 32.76ZM38.0209 28.3412H30.4133C30.3478 28.3412 30.2822 28.3576 30.2166 28.374C30.151 28.3905 30.1018 28.4397 30.069 28.489C30.0198 28.5383 29.9871 28.5876 29.9707 28.6533C29.9543 28.719 29.9379 28.7847 29.9379 28.8504V35.1747C29.9379 35.2404 29.9543 35.3061 29.9707 35.3718C29.9871 35.4375 30.0198 35.4868 30.069 35.5361C30.1182 35.5854 30.1674 35.6182 30.2166 35.6511C30.2822 35.6675 30.3478 35.6839 30.4133 35.6839H38.0209V36.7517H30.4133C30.315 36.7517 30.2166 36.7352 30.1182 36.7188C30.0198 36.7024 29.9215 36.6695 29.8231 36.6367C29.7247 36.6038 29.6427 36.5546 29.5608 36.5053C29.4788 36.4396 29.4132 36.3739 29.3312 36.3082C29.1837 36.1603 29.0853 35.996 29.0033 35.8153C28.9705 35.7168 28.9377 35.6182 28.9213 35.5197C28.9049 35.4211 28.8885 35.3225 28.8885 35.224V28.8668C28.8885 28.7683 28.9049 28.6697 28.9213 28.5712C28.9377 28.4726 28.9705 28.374 29.0033 28.2755C29.0361 28.1769 29.0853 28.0784 29.1345 27.9962C29.1837 27.9141 29.2493 27.8319 29.3312 27.7662C29.3968 27.7005 29.4788 27.6348 29.5608 27.5691C29.6427 27.5198 29.7247 27.4706 29.8231 27.4377C29.9215 27.4049 30.0198 27.372 30.1182 27.3556C30.2166 27.3391 30.315 27.3227 30.4133 27.3227H38.0209V28.3412ZM52.3015 27.2734V28.3412H44.9726V31.4787H50.8587V32.5629H44.9726V35.7004H52.3015V36.7681H43.9561V27.2734H52.3015Z" fill="#F5F5F5"/>
<path d="M67.3988 28.8825V31.6586C67.3988 31.7571 67.3824 31.8557 67.366 31.9543C67.3496 32.0528 67.3168 32.1514 67.284 32.2499C67.2512 32.3485 67.202 32.4471 67.1528 32.5292C67.0872 32.6113 67.038 32.6935 66.9561 32.7592C66.8905 32.8249 66.8085 32.8906 66.7265 32.9563C66.6446 33.0056 66.5626 33.0549 66.4642 33.0877C66.3658 33.1206 66.2675 33.1534 66.1691 33.1863C66.0707 33.2027 65.9723 33.2191 65.874 33.2191H64.4803L67.3496 36.7509H65.9723L63.1195 33.2191H59.7748C59.6108 33.2191 59.4469 33.2027 59.2829 33.1698V36.7509H58.25V27.2891H65.8904C65.9887 27.2891 66.0871 27.3055 66.1855 27.3219C66.2839 27.3383 66.3822 27.3712 66.4806 27.4041C66.579 27.4369 66.661 27.4862 66.7429 27.5519C66.9069 27.6669 67.0381 27.8147 67.1528 27.979C67.202 28.0611 67.2512 28.1597 67.284 28.2582C67.3168 28.3568 67.3496 28.4554 67.366 28.5539C67.3824 28.6689 67.3988 28.7839 67.3988 28.8825ZM59.7584 32.1678H65.874C65.9395 32.1678 66.0051 32.1514 66.0707 32.135C66.1363 32.1185 66.1855 32.0857 66.2183 32.02C66.2675 31.9707 66.3002 31.9214 66.3166 31.8557C66.333 31.79 66.3494 31.7243 66.3494 31.6586V28.8825C66.3494 28.751 66.3002 28.6196 66.2183 28.5211C66.1363 28.4225 66.0051 28.3568 65.874 28.3568H59.7584C59.6928 28.3568 59.6272 28.3732 59.5616 28.3897C59.4961 28.4061 59.4469 28.4554 59.4141 28.5046C59.3649 28.5539 59.3321 28.6032 59.3157 28.6689C59.2993 28.7346 59.2829 28.8003 59.2829 28.866V31.6422C59.2829 31.7736 59.3321 31.905 59.4469 32.0035C59.5125 32.1021 59.6436 32.1678 59.7584 32.1678Z" fill="#F5F5F5"/>
<path fill-rule="evenodd" clip-rule="evenodd" d="M72.875 27.2734H82.0237V28.3412H77.974V36.7517H76.9411V28.3412H72.875V27.2734ZM87.5983 36.7681V27.2899H88.6312V36.7681H87.5983ZM102.387 27.2734H103.715L99.895 32.0208L103.732 36.7681H102.387L98.9768 32.5629H96.0256V36.7681H94.9927V27.2899H96.042V31.4951H98.9932L102.387 27.2734Z" fill="#F5F5F5"/>
</svg>
