<svg width="195" height="120" viewBox="0 0 195 120" fill="none" xmlns="http://www.w3.org/2000/svg">
<path fill-rule="evenodd" clip-rule="evenodd" d="M40.0258 43.4053L40.2717 44.9453C40.4562 46.3622 40.5484 47.779 40.5177 49.2266C40.5177 52.399 40.1488 55.5406 39.411 58.6206C38.4272 62.7786 36.7057 66.7519 34.3386 70.3247C31.6025 74.3903 27.6369 78.3635 21.8881 81.6283L21.1811 82.0287L20.474 81.6283C14.7253 78.4251 10.7596 74.4211 8.0236 70.3247C5.62574 66.7519 3.93495 62.8094 2.95121 58.6206C2.21341 55.5406 1.84451 52.399 1.84451 49.2266C1.84451 47.8098 1.90599 46.3622 2.09044 44.9453L2.30563 43.4053C2.33637 43.2821 2.33637 43.1589 2.30563 43.0357C2.27489 42.9125 2.24415 42.7893 2.15192 42.6969C2.09044 42.6045 1.99821 42.5121 1.90599 42.4505C1.81376 42.3889 1.6908 42.3581 1.59857 42.3273C1.4756 42.2965 1.35264 42.2965 1.22967 42.3273C1.1067 42.3581 0.983737 42.4197 0.891512 42.4813C0.799287 42.5429 0.70706 42.6353 0.645577 42.7277C0.584093 42.8509 0.553351 42.9741 0.522609 43.0973L0.276676 44.6373C0.0922258 46.1466 0 47.6866 0 49.2266C0 52.553 0.399644 55.8486 1.16819 59.0826C1.6908 61.2694 2.39786 63.4254 3.28937 65.4891C4.18088 67.5527 5.25684 69.5239 6.51726 71.4027C9.40698 75.7147 13.5879 79.9343 19.6133 83.2607L20.7507 83.9076C20.9044 83.9692 21.0581 83.9999 21.2118 83.9999C21.3655 83.9999 21.5192 83.9692 21.673 83.9076L22.8104 83.2607C28.805 79.9035 33.0167 75.6839 35.9064 71.4027C38.4272 67.6451 40.241 63.4562 41.2555 59.0826C42.024 55.8486 42.3929 52.553 42.3929 49.2266C42.3929 47.6866 42.3007 46.1466 42.1162 44.6065L41.8703 43.0665C41.8396 42.9433 41.8088 42.8201 41.7473 42.6969C41.6858 42.6045 41.5936 42.5121 41.5014 42.4505C41.4092 42.3889 41.2862 42.3273 41.1632 42.2965C41.0403 42.2657 40.9173 42.2657 40.7943 42.2965C40.6714 42.3273 40.5484 42.3581 40.4254 42.4197C40.3332 42.4813 40.241 42.5737 40.1795 42.6661C40.118 42.7585 40.0565 42.8817 40.0258 43.0049V43.4053Z" fill="#F5F5F5"/>
<path fill-rule="evenodd" clip-rule="evenodd" d="M7.46506 42.3602L21.2374 38.0174L35.2864 42.4526C35.4093 42.4834 35.5323 42.4834 35.6553 42.4834C35.7782 42.4834 35.9012 42.4526 36.0242 42.391C36.1471 42.3294 36.2394 42.2678 36.3316 42.1446C36.4238 42.0522 36.4853 41.929 36.4853 41.8058C36.516 41.6826 36.516 41.5594 36.516 41.4362C36.516 41.313 36.4853 41.1898 36.4238 41.0666C36.3623 40.9434 36.3008 40.851 36.2086 40.7586C36.1164 40.6662 35.9934 40.6046 35.8705 40.6046L21.5141 36.0462C21.3296 35.9846 21.1452 35.9846 20.9607 36.0462L6.94245 40.4814C6.81948 40.5122 6.72726 40.5738 6.60429 40.6354C6.51207 40.7278 6.41984 40.8202 6.3891 40.9434C6.32762 41.0666 6.29688 41.1898 6.29688 41.313C6.29688 41.4362 6.29687 41.5594 6.32762 41.6826C6.35836 41.8058 6.41984 41.929 6.48133 42.0214C6.54281 42.1138 6.66578 42.2062 6.78874 42.2678C6.88097 42.3294 7.00394 42.3602 7.15765 42.3602C7.21913 42.391 7.3421 42.391 7.46506 42.3602Z" fill="#F5F5F5"/>
<path fill-rule="evenodd" clip-rule="evenodd" d="M0.674761 43.6866L20.3802 83.4804C20.4417 83.6344 20.5647 83.7576 20.6877 83.85C20.9951 84.0348 21.364 84.0348 21.6714 83.85C21.8251 83.7576 21.9481 83.6344 22.0403 83.4804L34.0603 60.2263L34.0911 60.1955L41.7765 43.6558C41.838 43.5326 41.8687 43.4094 41.8687 43.2862C41.8687 43.163 41.8687 43.0398 41.8073 42.9166C41.7765 42.7934 41.715 42.6702 41.6228 42.5778C41.5613 42.4854 41.4384 42.393 41.3461 42.3314C41.2539 42.2698 41.1309 42.239 40.9772 42.239C40.8543 42.239 40.7313 42.239 40.6083 42.2698C40.4854 42.3006 40.3624 42.3622 40.2702 42.4546C40.1779 42.547 40.0857 42.6394 40.055 42.7626L32.3695 59.3023L21.1795 80.9548L2.30408 42.7626C2.24259 42.6702 2.15037 42.547 2.08888 42.4546C1.99666 42.3622 1.87369 42.3006 1.75072 42.2698C1.62776 42.2082 1.50479 42.2082 1.38182 42.239C1.25886 42.239 1.13589 42.2698 1.01292 42.3314C0.920698 42.393 0.79773 42.4854 0.736246 42.5778C0.674763 42.6702 0.613279 42.7934 0.582538 42.9166C0.551796 43.0398 0.521054 43.163 0.551796 43.2862C0.582538 43.4402 0.613278 43.5634 0.674761 43.6866Z" fill="#F5F5F5"/>
<path fill-rule="evenodd" clip-rule="evenodd" d="M10.1101 61.424H32.0598C32.1827 61.424 32.3057 61.3932 32.4287 61.3624C32.5516 61.3316 32.6439 61.2392 32.7053 61.1468C32.7976 61.0544 32.859 60.962 32.8898 60.8388C32.982 60.5924 32.982 60.346 32.8898 60.0996C32.859 59.9764 32.7668 59.884 32.7053 59.7916C32.6131 59.6992 32.5209 59.6376 32.4287 59.576C32.3057 59.5452 32.1827 59.5144 32.0598 59.5144H10.1101C9.98717 59.5144 9.8642 59.5452 9.74123 59.576C9.61827 59.6068 9.52604 59.6992 9.46456 59.7916C9.37233 59.884 9.31085 59.9764 9.28011 60.0996C9.18788 60.346 9.18788 60.5924 9.28011 60.8388C9.31085 60.962 9.37233 61.0544 9.46456 61.1468C9.55678 61.2392 9.64901 61.3008 9.74123 61.3624C9.8642 61.3932 9.98717 61.3932 10.1101 61.424ZM71.2863 53.1387H57.0221C56.8991 53.1387 56.7761 53.1695 56.6532 53.2003C56.5302 53.2311 56.438 53.3235 56.3765 53.4159C56.2843 53.5083 56.2228 53.6007 56.1921 53.7239C56.1613 53.8471 56.1306 53.9703 56.1306 54.0935V65.9516C56.1306 66.0748 56.1613 66.198 56.1921 66.3212C56.2228 66.4444 56.2843 66.5368 56.3765 66.6292C56.4687 66.7216 56.561 66.7832 56.6532 66.8448C56.7761 66.8756 56.8991 66.9064 57.0221 66.9064H71.2863V68.9084H57.0221C56.8376 68.9084 56.6532 68.8776 56.4687 68.8468C56.2843 68.816 56.0998 68.7544 55.9154 68.6928C55.7309 68.6312 55.5772 68.5388 55.4235 68.4464C55.2698 68.3232 55.1468 68.2 54.9931 68.0768C54.7164 67.7996 54.532 67.4916 54.3783 67.1528C54.3168 66.968 54.2553 66.7832 54.2246 66.5984C54.1938 66.4136 54.1631 66.2288 54.1631 66.044V54.1243C54.1631 53.9395 54.1938 53.7547 54.2246 53.5699C54.2553 53.3851 54.3168 53.2003 54.3783 53.0155C54.4398 52.8307 54.532 52.6459 54.6242 52.4919C54.7165 52.3379 54.8394 52.1839 54.9931 52.0607C55.1161 51.9375 55.2698 51.8143 55.4235 51.6911C55.5772 51.5987 55.7309 51.5063 55.9154 51.4447C56.0998 51.3831 56.2843 51.3215 56.4687 51.2907C56.6532 51.2599 56.8376 51.2291 57.0221 51.2291H71.2863V53.1387ZM98.0623 51.1367V53.1387H84.3208V59.0216H95.3571V61.0544H84.3208V66.9372H98.0623V68.9392H82.4148V51.1367H98.0623Z" fill="#F5F5F5"/>
<path d="M126.38 54.1595V59.3647C126.38 59.5495 126.35 59.7343 126.319 59.9191C126.288 60.1039 126.227 60.2887 126.165 60.4735C126.104 60.6583 126.012 60.8431 125.919 60.9971C125.796 61.1511 125.704 61.3051 125.55 61.4283C125.427 61.5515 125.274 61.6747 125.12 61.7979C124.966 61.8903 124.813 61.9827 124.628 62.0443C124.444 62.1059 124.259 62.1675 124.075 62.2291C123.89 62.2599 123.706 62.2907 123.521 62.2907H120.908L126.288 68.9128H123.706L118.357 62.2907H112.086C111.778 62.2907 111.471 62.2599 111.163 62.1983V68.9128H109.227V51.1719H123.552C123.737 51.1719 123.921 51.2027 124.106 51.2335C124.29 51.2643 124.474 51.3259 124.659 51.3875C124.843 51.4491 124.997 51.5415 125.151 51.6647C125.458 51.8803 125.704 52.1575 125.919 52.4655C126.012 52.6195 126.104 52.8043 126.165 52.9891C126.227 53.1739 126.288 53.3587 126.319 53.5435C126.35 53.7591 126.38 53.9747 126.38 54.1595ZM112.055 60.3195H123.521C123.644 60.3195 123.767 60.2887 123.89 60.2579C124.013 60.2271 124.106 60.1655 124.167 60.0423C124.259 59.9499 124.321 59.8575 124.352 59.7343C124.382 59.6111 124.413 59.4879 124.413 59.3647V54.1595C124.413 53.9131 124.321 53.6667 124.167 53.4819C124.013 53.2971 123.767 53.1739 123.521 53.1739H112.055C111.932 53.1739 111.809 53.2047 111.686 53.2355C111.563 53.2663 111.471 53.3587 111.409 53.4511C111.317 53.5435 111.256 53.6359 111.225 53.7591C111.194 53.8823 111.163 54.0055 111.163 54.1287V59.3339C111.163 59.5803 111.256 59.8267 111.471 60.0115C111.594 60.1963 111.84 60.3195 112.055 60.3195Z" fill="#F5F5F5"/>
<path fill-rule="evenodd" clip-rule="evenodd" d="M136.641 51.1367H153.795V53.1387H146.201V68.9084H144.265V53.1387H136.641V51.1367ZM164.247 68.9392V51.1675H166.183V68.9392H164.247ZM191.976 51.1367H194.466L187.303 60.038L194.497 68.9392H191.976L185.582 61.0544H180.048V68.9392H178.111V51.1675H180.079V59.0524H185.612L191.976 51.1367Z" fill="#F5F5F5"/>
</svg>
