<svg width="279" height="120" viewBox="0 0 279 120" fill="none" xmlns="http://www.w3.org/2000/svg">
<g clip-path="url(#clip0_1000_5433)">
<path fill-rule="evenodd" clip-rule="evenodd" d="M41.14 64.6829C40.3025 65.2121 39.3163 65.2777 38.5667 64.855C37.6144 64.3177 37.0909 63.0591 37.0909 61.3089V56.0722C37.0909 53.5434 36.0906 51.744 34.418 51.2581C31.5835 50.4328 29.4518 53.8993 28.6506 55.2012L23.6516 63.3026V53.4006C23.5954 51.1223 22.8551 49.7596 21.4496 49.3487C20.5196 49.0771 19.1281 49.186 17.7765 51.2535L6.57673 69.2289C5.07749 66.384 4.29625 63.216 4.29976 60C4.29976 49.1719 12.9813 40.3633 23.6516 40.3633C34.322 40.3633 43.0023 49.1719 43.0023 60C43.0023 60.0187 43.007 60.0351 43.0082 60.0527C43.0082 60.0714 43.0046 60.0878 43.0058 60.1065C43.1065 62.2033 42.4272 63.8704 41.14 64.6829ZM47.3021 60.0012V59.9461L47.3009 59.8923C47.2412 46.7052 36.6563 36 23.6504 36C10.6106 36 0 46.766 0 60C0 73.2328 10.6106 84 23.6516 84C29.6357 84 35.3468 81.7264 39.7309 77.5996C40.6024 76.7801 40.6539 75.3998 39.8457 74.5171C39.4428 74.0722 38.8689 73.8193 38.2692 73.8193C37.7257 73.8193 37.2021 74.0265 36.8074 74.4C33.2549 77.7623 28.544 79.6379 23.6516 79.6367C17.9381 79.6367 12.7974 77.1091 9.25193 73.1005L19.3519 56.8905V64.3633C19.3519 67.9528 20.7445 69.113 21.9123 69.4525C23.0812 69.792 24.8674 69.5602 26.7426 66.5163L32.298 57.5145C32.476 57.2242 32.64 56.9737 32.7899 56.7571V61.3089C32.7899 64.6642 34.1346 67.3475 36.4783 68.6693C38.5913 69.8611 41.2477 69.7534 43.4122 68.3883C46.0359 66.7317 47.4496 63.6796 47.3021 60.0012ZM80.2302 51.8014C80.7983 52.1467 81.2902 52.9147 81.2902 53.6066C81.2902 54.72 80.3438 55.6414 79.2838 55.6414C79.0191 55.6414 78.7544 55.5653 78.5272 55.488C77.2774 54.5666 75.688 53.952 74.0224 53.952C70.0869 53.952 67.3614 57.1774 67.3614 61.1707C67.3614 65.1653 70.0869 68.352 74.0224 68.352C75.9902 68.352 77.7319 67.5454 79.0566 66.3173C79.3986 66.0714 79.8085 65.9368 80.2302 65.9333C81.2902 65.9333 82.123 66.7774 82.123 67.8533C82.123 68.544 81.706 69.1586 81.1766 69.504C79.2838 71.1173 76.7105 72.192 74.0611 72.192C68.0056 72.192 63.0839 67.2 63.0839 61.056C63.0839 54.912 68.0044 49.92 74.0611 49.92C76.3322 49.92 78.4885 50.6107 80.2302 51.8014ZM91.3035 56.448C95.4287 56.448 98.9109 59.9426 98.9109 64.2427C98.9109 68.544 95.4287 72.192 91.3035 72.192C86.9885 72.192 83.3926 68.544 83.3926 64.2427C83.3926 59.9426 86.9885 56.448 91.3035 56.448ZM91.2648 68.352C93.0826 68.352 94.6334 66.624 94.6334 64.2814C94.6334 61.9399 93.0826 60.48 91.2648 60.48C89.2971 60.48 87.669 61.9013 87.669 64.2814C87.669 66.624 89.2971 68.352 91.2648 68.352ZM101.505 69.8107V58.8293C101.505 57.6386 102.452 56.64 103.625 56.64C104.799 56.64 105.783 57.6386 105.783 58.8293V69.8107C105.783 71.0014 104.799 72 103.625 72C102.452 72 101.505 71.0014 101.505 69.8107ZM101.166 52.4933C101.166 51.072 102.262 49.92 103.625 49.92C105.025 49.92 106.161 51.072 106.161 52.4933C106.161 53.8747 105.025 54.9893 103.625 54.9893C102.262 54.9893 101.166 53.8747 101.166 52.4933ZM113.979 63.8587V69.8107C113.979 71.0014 112.996 72 111.821 72C110.648 72 109.701 71.0014 109.701 69.8107V58.3294C109.701 57.408 110.459 56.64 111.367 56.64C112.275 56.64 112.996 57.408 112.996 58.3294C114.736 56.7173 116.249 56.448 117.688 56.448C121.965 56.448 123.858 59.6734 123.858 63.3214V69.8107C123.858 71.0014 122.874 72 121.7 72C120.527 72 119.58 71.0014 119.58 69.8107V63.8587C119.58 61.9774 119.353 60.4027 116.666 60.4027C114.774 60.4027 113.979 61.9774 113.979 63.8587ZM137.769 66.1253C137.277 66.1253 136.938 65.8946 136.672 65.5867L131.675 60.1733V69.8107C131.675 71.0014 130.691 72 129.518 72C128.344 72 127.398 71.0014 127.398 69.8107V50.7278C127.523 50.3988 127.843 50.1834 128.194 50.1893C128.571 50.1893 128.873 50.4972 129.102 50.7278L137.05 59.6745C137.277 59.9438 137.579 60.0972 137.732 60.0972C137.883 60.0972 138.185 59.9438 138.412 59.6757L146.362 50.7278C146.589 50.4972 146.891 50.1893 147.269 50.1893C147.648 50.1893 147.951 50.4199 148.065 50.7278V69.8107C148.065 71.0014 147.118 72 145.945 72C144.771 72 143.787 71.0014 143.787 69.8107V60.1733L138.792 65.5867C138.526 65.8946 138.185 66.1253 137.769 66.1253ZM158.343 68.352C160.273 68.352 161.9 66.624 161.9 64.2814C161.9 61.9399 160.236 60.4027 158.343 60.4027C156.45 60.4027 154.935 61.9774 154.935 64.2814C154.935 66.5467 156.45 68.352 158.343 68.352ZM162.885 70.3106L162.808 69.8107C161.976 71.4615 159.325 72.192 157.622 72.192C153.61 72.192 150.658 68.544 150.658 64.2427C150.658 59.9426 153.686 56.448 157.85 56.448C158.569 56.448 160.954 56.64 162.808 58.8293L162.884 58.3294C162.884 57.408 163.603 56.64 164.512 56.64C165.42 56.64 166.176 57.408 166.176 58.3294V70.3106C166.176 71.232 165.42 72 164.511 72C163.603 72 162.883 71.232 162.883 70.3106H162.885ZM178.045 60.4027H177.592C174.903 60.5573 174.374 62.0933 174.374 63.8587V69.8107C174.374 71.0014 173.39 72 172.217 72C171.043 72 170.097 71.0014 170.097 69.8107V58.3294C170.097 57.408 170.853 56.64 171.762 56.64C172.671 56.64 173.39 57.408 173.39 58.3294C174.98 56.832 176.267 56.5253 177.592 56.448H178.007C179.03 56.448 179.975 57.3307 179.975 58.4453C179.975 59.4814 179.067 60.4027 178.045 60.4027ZM194.531 68.8133C194.72 69.12 194.834 69.4654 194.834 69.8494C194.834 70.9627 193.811 72 192.714 72C191.957 72 191.313 71.424 190.821 70.8094L185.902 65.088V69.8107C185.902 71.0014 184.917 72 183.743 72C182.569 72 181.623 71.0014 181.623 69.8107V52.3785C181.623 51.1867 182.569 50.1893 183.743 50.1893C184.917 50.1893 185.901 51.1867 185.901 52.3785V63.2453L190.821 57.792C191.313 57.216 191.919 56.64 192.676 56.64C193.736 56.64 194.72 57.6386 194.72 58.752C194.72 59.0974 194.644 59.4427 194.454 59.7506L190.556 64.0121L194.531 68.8133ZM202.917 60.48C201.743 60.48 199.85 61.0946 199.85 62.8987H206.02C206.02 61.056 204.052 60.48 202.916 60.48H202.917ZM208.518 65.6254H199.85C199.85 68.1986 202.31 68.5826 203.408 68.5826C204.204 68.5826 205.339 68.4293 206.209 68.0441C206.474 67.8533 206.929 67.6987 207.307 67.6987C208.253 67.6987 209.047 68.5065 209.047 69.4665C209.047 70.1186 208.632 70.6946 208.102 71.0014C206.777 71.9614 205.073 72.192 203.446 72.192C199.131 72.192 195.535 69.8505 195.535 64.4347C195.535 60.1733 197.73 56.448 202.841 56.448C206.966 56.448 210.107 59.136 210.183 63.936C210.183 64.8574 209.427 65.6254 208.518 65.6254ZM220.424 72.192H219.25C215.994 72.192 214.103 70.7707 214.103 65.664V60.4027H213.005C211.983 60.4027 211.075 59.4814 211.075 58.4453C211.075 57.3307 211.983 56.448 213.005 56.448H214.103V52.3774C214.103 51.1867 215.049 50.1881 216.223 50.1881C217.395 50.1881 218.38 51.1867 218.38 52.3774V56.448H220.158C221.181 56.448 222.09 57.3307 222.09 58.4453C222.09 59.4814 221.181 60.4027 220.158 60.4027H218.38V64.8187C218.38 67.7374 218.531 68.352 219.818 68.352H220.424C221.445 68.352 222.316 69.1973 222.316 70.272C222.316 71.3093 221.445 72.192 220.424 72.192ZM241.149 51.8014C241.715 52.1467 242.209 52.9147 242.209 53.6066C242.209 54.72 241.262 55.6414 240.202 55.6414C239.937 55.6414 239.672 55.5653 239.446 55.488C238.196 54.5666 236.606 53.952 234.941 53.952C231.005 53.952 228.279 57.1774 228.279 61.1707C228.279 65.1653 231.004 68.352 234.941 68.352C236.909 68.352 238.65 67.5454 239.975 66.3173C240.317 66.0714 240.727 65.9368 241.149 65.9333C242.209 65.9333 243.04 66.7774 243.04 67.8533C243.04 68.544 242.624 69.1586 242.095 69.504C240.202 71.1173 237.628 72.192 234.978 72.192C228.923 72.192 224.002 67.2 224.002 61.056C224.002 54.912 228.922 49.92 234.978 49.92C237.251 49.92 239.407 50.6107 241.149 51.8014ZM251.995 68.352C253.925 68.352 255.552 66.624 255.552 64.2814C255.552 61.9399 253.886 60.4027 251.993 60.4027C250.102 60.4027 248.587 61.9774 248.587 64.2814C248.587 66.5467 250.102 68.352 251.993 68.352H251.995ZM256.536 70.3106L256.461 69.8107C255.628 71.4615 252.978 72.192 251.274 72.192C247.263 72.192 244.31 68.544 244.31 64.2427C244.31 59.9426 247.339 56.448 251.501 56.448C252.221 56.448 254.605 56.64 256.461 58.8293L256.536 58.3294C256.536 57.408 257.255 56.64 258.164 56.64C259.071 56.64 259.829 57.408 259.829 58.3294V70.3106C259.829 71.232 259.071 72 258.164 72C257.255 72 256.536 71.232 256.536 70.3106ZM271.583 68.352C273.476 68.352 274.989 66.5467 274.989 64.2814C274.989 61.9774 273.476 60.4027 271.583 60.4027C269.69 60.4027 268.025 61.9387 268.025 64.2814C268.025 66.624 269.653 68.352 271.583 68.352ZM268.025 70.9253V76.3774C268.025 77.568 267.041 78.5666 265.867 78.5666C264.695 78.5666 263.747 77.568 263.747 76.3774V58.3294C263.747 57.408 264.505 56.64 265.414 56.64C266.322 56.64 267.042 57.408 267.042 58.4827C268.63 56.832 270.599 56.448 272.075 56.448C276.239 56.448 279.267 59.9426 279.267 64.2427C279.267 68.544 276.315 72.192 272.302 72.192C271.054 72.192 269.198 71.808 268.025 70.9253Z" fill="#F5F5F5"/>
</g>
<defs>
<clipPath id="clip0_1000_5433">
<rect width="279" height="120" fill="white"/>
</clipPath>
</defs>
</svg>
