<svg width="96" height="64" viewBox="0 0 96 64" fill="none" xmlns="http://www.w3.org/2000/svg">
<path d="M12.8803 19.1993C5.86033 19.2315 0.195686 24.9876 0.226689 32.0568C0.258577 39.1259 5.97547 44.8303 12.9945 44.7991C20.0144 44.767 25.6791 39.0109 25.6481 31.9426C25.6162 24.8725 19.9002 19.1681 12.8803 19.1993ZM11.2707 31.3717C10.0156 31.3717 8.9978 30.3477 8.9978 29.0837C8.9978 27.8197 10.0156 26.7957 11.2707 26.7957C12.5259 26.7957 13.5428 27.8206 13.5428 29.0837C13.5428 30.3468 12.525 31.3717 11.2707 31.3717ZM13.0831 33.8452L13.0946 33.831L13.107 33.8167C13.7554 34.2377 14.4959 34.3867 15.2356 34.4081C15.9761 34.4277 16.7308 34.3715 17.4731 34.2208C18.2145 34.0656 18.9435 33.8363 19.6477 33.5437C20.0428 33.3796 20.436 33.2003 20.8107 32.9898C20.8134 32.988 20.8152 32.9871 20.8178 32.9853C21.0508 32.8444 21.2784 32.6954 21.5017 32.542C21.5504 32.5072 21.5973 32.4706 21.6434 32.4332L21.6487 32.4394L21.6682 32.4626C21.0969 32.9862 20.4166 33.3751 19.7239 33.7186C19.0241 34.0504 18.2942 34.3224 17.5404 34.5187C16.7892 34.7141 16.0053 34.8621 15.2116 34.789C14.4304 34.7194 13.6075 34.4438 13.0813 33.8461L13.0831 33.8452ZM18.9152 31.3717C18.9142 31.097 19.1339 30.8757 19.405 30.8731C19.6778 30.8722 19.8975 31.0925 19.9002 31.3663C19.901 31.6402 19.6814 31.8641 19.4103 31.865C19.1384 31.8659 18.9178 31.6447 18.9152 31.3717ZM15.0221 43.6484C14.5313 40.1847 17.5351 36.7924 19.2287 35.0566C19.6131 34.6632 20.2075 34.1209 20.7603 33.5446C22.9588 31.4743 23.3964 29.0007 18.8965 27.7644C18.0435 27.5155 17.1595 27.1632 16.264 26.8073C16.2356 26.7243 16.2037 26.6458 16.1665 26.5718C16.0638 26.3934 15.884 26.1882 15.612 25.9554C15.0274 25.4443 13.9281 25.4577 12.9794 25.6843C11.9307 25.4354 10.896 25.3471 9.90132 25.587C5.54941 26.7948 4.84965 28.932 4.68046 31.5073C4.45016 34.2903 4.31552 36.3643 3.2694 38.7334C1.96374 36.837 1.19398 34.5365 1.18335 32.0541C1.15412 25.5174 6.39268 20.1948 12.8838 20.1654C19.3748 20.136 24.6604 25.4113 24.6896 31.9479C24.7162 37.7861 20.5388 42.6574 15.0212 43.6502L15.0221 43.6484Z" fill="#F5F5F5"/>
<path d="M12.8687 29.1053C12.8687 29.9946 12.153 30.7144 11.2707 30.7144C10.3885 30.7144 9.67188 29.9946 9.67188 29.1053C9.67188 28.2159 10.3876 27.4961 11.2707 27.4961C12.1539 27.4961 12.8687 28.2159 12.8687 29.1053Z" fill="#F5F5F5"/>
<path d="M38.7462 30.3716C38.4853 29.3448 37.8263 28.5942 36.5333 28.5942C34.6312 28.5942 33.8353 30.2846 33.8353 31.9991C33.8353 33.7136 34.6312 35.404 36.5333 35.404C37.9135 35.404 38.6715 34.3647 38.7961 33.0626H40.3125C40.188 35.2031 38.6838 36.6809 36.5333 36.6809C33.8727 36.6809 32.2812 34.553 32.2812 31.9982C32.2812 29.4434 33.8727 27.3164 36.5333 27.3164C38.5352 27.3289 40.1138 28.4436 40.3 30.3716H38.7462Z" fill="#F5F5F5"/>
<path d="M41.2422 33.2252C41.2422 31.247 42.4229 29.8203 44.4872 29.8203C46.5512 29.8203 47.7319 31.2479 47.7319 33.2252C47.7319 35.2024 46.5512 36.6426 44.4872 36.6426C42.4229 36.6426 41.2422 35.215 41.2422 33.2252ZM46.3144 33.2252C46.3144 32.1106 45.7551 30.9466 44.4872 30.9466C43.219 30.9466 42.6597 32.1106 42.6597 33.2252C42.6597 34.3398 43.219 35.5163 44.4872 35.5163C45.7551 35.5163 46.3144 34.3524 46.3144 33.2252Z" fill="#F5F5F5"/>
<path d="M48.9531 27.5312H50.3707V28.8835H48.9531V27.5312ZM48.9531 29.9973H50.3707V36.4698H48.9531V29.9973Z" fill="#F5F5F5"/>
<path d="M51.9062 29.9952H53.2491V30.9466L53.2739 30.9717C53.6969 30.2579 54.4298 29.8203 55.2758 29.8203C56.6685 29.8203 57.5508 30.5718 57.5508 32.0236V36.4677H56.1333V32.3993C56.1085 31.3851 55.7103 30.9475 54.8776 30.9475C53.9329 30.9475 53.3238 31.699 53.3238 32.6504V36.4686H51.9062V29.9961V29.9952Z" fill="#F5F5F5"/>
<path d="M66.984 36.4684H65.9894L65.7534 35.4165C64.9207 36.368 64.1622 36.6809 63.0802 36.6809C60.4196 36.6809 58.8281 34.553 58.8281 31.9982C58.8281 29.4434 60.4196 27.3164 63.0802 27.3164C65.0197 27.3164 66.6485 28.3557 66.8842 30.3716H65.3677C65.2184 29.195 64.1996 28.5942 63.0802 28.5942C61.1781 28.5942 60.382 30.2846 60.382 31.9991C60.382 33.7136 61.1781 35.404 63.0802 35.404C64.6716 35.4291 65.5416 34.4651 65.5664 32.9505H63.204V31.7615H66.9832V36.4684H66.984Z" fill="#F5F5F5"/>
<path d="M69.5886 33.6009C69.5886 34.6151 70.1354 35.5163 71.3171 35.5163C72.1373 35.5163 72.6349 35.1531 72.8835 34.4393H74.2264C73.9154 35.8544 72.7221 36.6426 71.3171 36.6426C69.3027 36.6426 68.1719 35.2276 68.1719 33.2377C68.1719 31.3976 69.3651 29.8203 71.2795 29.8203C73.3065 29.8203 74.5496 31.6604 74.3136 33.6009H69.5894H69.5886ZM72.8958 32.662C72.8459 31.7608 72.237 30.9466 71.2795 30.9466C70.3223 30.9466 69.626 31.698 69.5886 32.662H72.8958Z" fill="#F5F5F5"/>
<path d="M79.7273 32.1608C79.6153 31.3716 79.0435 30.9466 78.2607 30.9466C77.527 30.9466 76.4949 31.3349 76.4949 33.3005C76.4949 34.3775 76.9677 35.5163 78.1986 35.5163C79.0187 35.5163 79.591 34.9657 79.7273 34.0394H81.1451C80.884 35.7172 79.8522 36.6435 78.1986 36.6435C76.1842 36.6435 75.0781 35.2034 75.0781 33.3005C75.0781 31.3976 76.1354 29.8203 78.2485 29.8203C79.7399 29.8203 81.0081 30.5718 81.1451 32.1616H79.7273V32.1608Z" fill="#F5F5F5"/>
<path d="M82.3438 27.5312H83.7613V32.6139L86.3222 29.9973H88.0624L85.601 32.3763L88.2993 36.4698H86.5708L84.6065 33.3277L83.7613 34.1536V36.4698H82.3438V27.5312Z" fill="#F5F5F5"/>
<path d="M88.6797 33.2252C88.6797 31.247 89.8604 29.8203 91.9247 29.8203C93.9887 29.8203 95.1694 31.2479 95.1694 33.2252C95.1694 35.2024 93.9887 36.6426 91.9247 36.6426C89.8604 36.6426 88.6797 35.215 88.6797 33.2252ZM93.7519 33.2252C93.7519 32.1106 93.1926 30.9466 91.9247 30.9466C90.6565 30.9466 90.0972 32.1106 90.0972 33.2252C90.0972 34.3398 90.6565 35.5163 91.9247 35.5163C93.1926 35.5163 93.7519 34.3524 93.7519 33.2252Z" fill="#F5F5F5"/>
</svg>
