<svg width="149" height="64" viewBox="0 0 149 64" fill="none" xmlns="http://www.w3.org/2000/svg">
<g clip-path="url(#clip0_1000_6193)">
<path fill-rule="evenodd" clip-rule="evenodd" d="M21.9708 34.4968C21.5236 34.779 20.9969 34.814 20.5965 34.5886C20.088 34.302 19.8084 33.6308 19.8084 32.6973V29.9044C19.8084 28.5557 19.2742 27.596 18.3809 27.3369C16.8672 26.8967 15.7287 28.7455 15.3009 29.4398L12.6311 33.7606V28.4795C12.6011 27.2645 12.2058 26.5377 11.4552 26.3185C10.9585 26.1737 10.2154 26.2317 9.49354 27.3344L3.5123 36.9213C2.71163 35.404 2.29441 33.7144 2.29629 31.9992C2.29629 26.2242 6.93265 21.5263 12.6311 21.5263C18.3296 21.5263 22.9654 26.2242 22.9654 31.9992C22.9654 32.0092 22.9679 32.018 22.9685 32.0273C22.9685 32.0373 22.9666 32.046 22.9673 32.056C23.0211 33.1743 22.6583 34.0635 21.9708 34.4968ZM25.2617 31.9998V31.9705L25.261 31.9418C25.2291 24.9086 19.5763 19.1992 12.6305 19.1992C5.6666 19.1992 0 24.9411 0 31.9992C0 39.0567 5.6666 44.7992 12.6311 44.7992C15.8269 44.7992 18.877 43.5867 21.2183 41.3857C21.6837 40.9486 21.7112 40.2124 21.2796 39.7417C21.0644 39.5044 20.7579 39.3695 20.4377 39.3695C20.1474 39.3695 19.8678 39.48 19.657 39.6792C17.7598 41.4725 15.244 42.4727 12.6311 42.4721C9.57986 42.4721 6.83444 41.1241 4.94099 38.9861L10.3349 30.3408V34.3263C10.3349 36.2407 11.0786 36.8595 11.7023 37.0405C12.3265 37.2216 13.2804 37.098 14.2819 35.4746L17.2487 30.6736C17.3438 30.5188 17.4314 30.3852 17.5115 30.2697V32.6973C17.5115 34.4868 18.2296 35.9179 19.4812 36.6228C20.6097 37.2585 22.0284 37.201 23.1843 36.473C24.5855 35.5895 25.3405 33.9617 25.2617 31.9998ZM42.847 27.6266C43.1503 27.8108 43.413 28.2204 43.413 28.5894C43.413 29.1832 42.9076 29.6746 42.3415 29.6746C42.2002 29.6746 42.0588 29.634 41.9374 29.5928C41.27 29.1014 40.4212 28.7736 39.5317 28.7736C37.4299 28.7736 35.9743 30.4938 35.9743 32.6236C35.9743 34.754 37.4299 36.4536 39.5317 36.4536C40.5826 36.4536 41.5127 36.0234 42.2202 35.3684C42.4028 35.2373 42.6218 35.1655 42.847 35.1636C43.413 35.1636 43.8578 35.6138 43.8578 36.1876C43.8578 36.556 43.6351 36.8838 43.3524 37.068C42.3415 37.9284 40.9673 38.5016 39.5523 38.5016C36.3184 38.5016 33.6899 35.8392 33.6899 32.5624C33.6899 29.2856 36.3178 26.6232 39.5523 26.6232C40.7652 26.6232 41.9168 26.9916 42.847 27.6266ZM48.7606 30.1048C50.9637 30.1048 52.8234 31.9686 52.8234 34.262C52.8234 36.556 50.9637 38.5016 48.7606 38.5016C46.4562 38.5016 44.5359 36.556 44.5359 34.262C44.5359 31.9686 46.4562 30.1048 48.7606 30.1048ZM48.74 36.4536C49.7108 36.4536 50.539 35.532 50.539 34.2826C50.539 33.0338 49.7108 32.2552 48.74 32.2552C47.6891 32.2552 46.8196 33.0132 46.8196 34.2826C46.8196 35.532 47.6891 36.4536 48.74 36.4536ZM54.2089 37.2316V31.3748C54.2089 30.7398 54.7143 30.2072 55.3411 30.2072C55.9679 30.2072 56.4933 30.7398 56.4933 31.3748V37.2316C56.4933 37.8666 55.9679 38.3992 55.3411 38.3992C54.7143 38.3992 54.2089 37.8666 54.2089 37.2316ZM54.0275 27.9956C54.0275 27.2376 54.613 26.6232 55.3411 26.6232C56.0886 26.6232 56.6954 27.2376 56.6954 27.9956C56.6954 28.7324 56.0886 29.3268 55.3411 29.3268C54.613 29.3268 54.0275 28.7324 54.0275 27.9956ZM60.8707 34.0572V37.2316C60.8707 37.8666 60.3453 38.3992 59.7179 38.3992C59.0917 38.3992 58.5857 37.8666 58.5857 37.2316V31.1082C58.5857 30.6168 58.9904 30.2072 59.4758 30.2072C59.9606 30.2072 60.3453 30.6168 60.3453 31.1082C61.2748 30.2484 62.083 30.1048 62.8511 30.1048C65.1355 30.1048 66.1464 31.825 66.1464 33.7706V37.2316C66.1464 37.8666 65.6209 38.3992 64.9942 38.3992C64.3674 38.3992 63.862 37.8666 63.862 37.2316V34.0572C63.862 33.0538 63.7406 32.214 62.3057 32.214C61.2948 32.214 60.8707 33.0538 60.8707 34.0572ZM73.5757 35.266C73.313 35.266 73.1316 35.143 72.9896 34.9788L70.3211 32.0916V37.2316C70.3211 37.8666 69.7957 38.3992 69.1689 38.3992C68.5421 38.3992 68.0367 37.8666 68.0367 37.2316V27.054C68.1036 26.8786 68.2744 26.7637 68.462 26.7668C68.6635 26.7668 68.8248 26.931 68.9468 27.054L73.1916 31.8256C73.313 31.9692 73.4743 32.051 73.5557 32.051C73.6364 32.051 73.7977 31.9692 73.9191 31.8263L78.1645 27.054C78.2859 26.931 78.4472 26.7668 78.6493 26.7668C78.8513 26.7668 79.0133 26.8898 79.074 27.054V37.2316C79.074 37.8666 78.5686 38.3992 77.9418 38.3992C77.315 38.3992 76.7896 37.8666 76.7896 37.2316V32.0916L74.1218 34.9788C73.9798 35.143 73.7977 35.266 73.5757 35.266ZM84.563 36.4536C85.5938 36.4536 86.4627 35.532 86.4627 34.2826C86.4627 33.0338 85.5738 32.214 84.563 32.214C83.5521 32.214 82.7433 33.0538 82.7433 34.2826C82.7433 35.4908 83.5521 36.4536 84.563 36.4536ZM86.9887 37.4982L86.9474 37.2316C86.5033 38.112 85.0878 38.5016 84.1783 38.5016C82.0352 38.5016 80.4589 36.556 80.4589 34.262C80.4589 31.9686 82.0759 30.1048 84.2996 30.1048C84.6837 30.1048 85.9572 30.2072 86.9474 31.3748L86.9881 31.1082C86.9881 30.6168 87.3722 30.2072 87.8576 30.2072C88.3424 30.2072 88.7464 30.6168 88.7464 31.1082V37.4982C88.7464 37.9896 88.3424 38.3992 87.8569 38.3992C87.3722 38.3992 86.9875 37.9896 86.9875 37.4982H86.9887ZM95.0849 32.214H94.8428C93.4072 32.2964 93.1245 33.1156 93.1245 34.0572V37.2316C93.1245 37.8666 92.599 38.3992 91.9723 38.3992C91.3455 38.3992 90.8401 37.8666 90.8401 37.2316V31.1082C90.8401 30.6168 91.2442 30.2072 91.7296 30.2072C92.215 30.2072 92.599 30.6168 92.599 31.1082C93.4479 30.3096 94.1353 30.146 94.8428 30.1048H95.0648C95.6109 30.1048 96.1157 30.5756 96.1157 31.17C96.1157 31.7226 95.6309 32.214 95.0849 32.214ZM103.889 36.6996C103.99 36.8632 104.051 37.0474 104.051 37.2522C104.051 37.846 103.505 38.3992 102.919 38.3992C102.515 38.3992 102.171 38.092 101.908 37.7642L99.2808 34.7128V37.2316C99.2808 37.8666 98.7548 38.3992 98.128 38.3992C97.5012 38.3992 96.9958 37.8666 96.9958 37.2316V27.9344C96.9958 27.2988 97.5012 26.7668 98.128 26.7668C98.7548 26.7668 99.2802 27.2988 99.2802 27.9344V33.73L101.908 30.8216C102.171 30.5144 102.494 30.2072 102.899 30.2072C103.465 30.2072 103.99 30.7398 103.99 31.3336C103.99 31.5178 103.95 31.702 103.848 31.8662L101.767 34.139L103.889 36.6996ZM108.368 32.2552C107.741 32.2552 106.73 32.583 106.73 33.5452H110.025C110.025 32.5624 108.974 32.2552 108.367 32.2552H108.368ZM111.359 34.9994H106.73C106.73 36.3718 108.044 36.5766 108.63 36.5766C109.055 36.5766 109.661 36.4948 110.126 36.2894C110.267 36.1876 110.51 36.1052 110.712 36.1052C111.218 36.1052 111.642 36.536 111.642 37.048C111.642 37.3958 111.42 37.703 111.137 37.8666C110.43 38.3786 109.519 38.5016 108.651 38.5016C106.346 38.5016 104.426 37.2528 104.426 34.3644C104.426 32.0916 105.598 30.1048 108.327 30.1048C110.53 30.1048 112.208 31.5384 112.249 34.0984C112.249 34.5898 111.844 34.9994 111.359 34.9994ZM117.717 38.5016H117.091C115.352 38.5016 114.342 37.7436 114.342 35.02V32.214H113.755C113.209 32.214 112.725 31.7226 112.725 31.17C112.725 30.5756 113.209 30.1048 113.755 30.1048H114.342V27.9338C114.342 27.2988 114.847 26.7662 115.474 26.7662C116.1 26.7662 116.626 27.2988 116.626 27.9338V30.1048H117.575C118.122 30.1048 118.607 30.5756 118.607 31.17C118.607 31.7226 118.122 32.214 117.575 32.214H116.626V34.5692C116.626 36.1258 116.707 36.4536 117.394 36.4536H117.717C118.263 36.4536 118.728 36.9044 118.728 37.4776C118.728 38.0308 118.263 38.5016 117.717 38.5016ZM128.785 27.6266C129.088 27.8108 129.352 28.2204 129.352 28.5894C129.352 29.1832 128.846 29.6746 128.28 29.6746C128.139 29.6746 127.997 29.634 127.876 29.5928C127.208 29.1014 126.36 28.7736 125.47 28.7736C123.368 28.7736 121.912 30.4938 121.912 32.6236C121.912 34.754 123.368 36.4536 125.47 36.4536C126.521 36.4536 127.451 36.0234 128.159 35.3684C128.341 35.2373 128.56 35.1655 128.785 35.1636C129.352 35.1636 129.796 35.6138 129.796 36.1876C129.796 36.556 129.574 36.8838 129.291 37.068C128.28 37.9284 126.905 38.5016 125.49 38.5016C122.256 38.5016 119.628 35.8392 119.628 32.5624C119.628 29.2856 122.256 26.6232 125.49 26.6232C126.704 26.6232 127.855 26.9916 128.785 27.6266ZM134.578 36.4536C135.609 36.4536 136.477 35.532 136.477 34.2826C136.477 33.0338 135.588 32.214 134.577 32.214C133.567 32.214 132.758 33.0538 132.758 34.2826C132.758 35.4908 133.567 36.4536 134.577 36.4536H134.578ZM137.003 37.4982L136.963 37.2316C136.518 38.112 135.103 38.5016 134.193 38.5016C132.051 38.5016 130.474 36.556 130.474 34.262C130.474 31.9686 132.091 30.1048 134.314 30.1048C134.698 30.1048 135.972 30.2072 136.963 31.3748L137.003 31.1082C137.003 30.6168 137.387 30.2072 137.872 30.2072C138.357 30.2072 138.762 30.6168 138.762 31.1082V37.4982C138.762 37.9896 138.357 38.3992 137.872 38.3992C137.387 38.3992 137.003 37.9896 137.003 37.4982ZM145.039 36.4536C146.05 36.4536 146.858 35.4908 146.858 34.2826C146.858 33.0538 146.05 32.214 145.039 32.214C144.028 32.214 143.139 33.0332 143.139 34.2826C143.139 35.532 144.008 36.4536 145.039 36.4536ZM143.139 37.826V40.7338C143.139 41.3688 142.613 41.9014 141.986 41.9014C141.36 41.9014 140.854 41.3688 140.854 40.7338V31.1082C140.854 30.6168 141.259 30.2072 141.744 30.2072C142.229 30.2072 142.614 30.6168 142.614 31.19C143.462 30.3096 144.514 30.1048 145.302 30.1048C147.525 30.1048 149.142 31.9686 149.142 34.262C149.142 36.556 147.566 38.5016 145.423 38.5016C144.756 38.5016 143.765 38.2968 143.139 37.826Z" fill="#F5F5F5"/>
</g>
<defs>
<clipPath id="clip0_1000_6193">
<rect width="149" height="64" fill="white"/>
</clipPath>
</defs>
</svg>
