<svg width="179" height="120" viewBox="0 0 179 120" fill="none" xmlns="http://www.w3.org/2000/svg">
<path d="M24.1309 36.0002C10.9778 36.0604 0.364023 46.8532 0.422112 60.1079C0.481861 73.3626 11.1935 84.0583 24.3449 83.9998C37.4981 83.9396 48.1118 73.1468 48.0537 59.8938C47.994 46.6375 37.284 35.9417 24.1309 36.0002ZM21.1152 58.8234C18.7634 58.8234 16.8564 56.9034 16.8564 54.5334C16.8564 52.1635 18.7634 50.2434 21.1152 50.2434C23.467 50.2434 25.3724 52.1651 25.3724 54.5334C25.3724 56.9017 23.4653 58.8234 21.1152 58.8234ZM24.5109 63.4613L24.5325 63.4345L24.5557 63.4078C25.7706 64.1972 27.1582 64.4765 28.544 64.5167C29.9315 64.5534 31.3456 64.4481 32.7364 64.1654C34.1255 63.8744 35.4915 63.4446 36.8109 62.896C37.5512 62.5882 38.2881 62.2521 38.9901 61.8574C38.9951 61.854 38.9984 61.8523 39.0034 61.849C39.4399 61.5847 39.8664 61.3054 40.2847 61.0178C40.3759 60.9525 40.4639 60.8839 40.5502 60.8137L40.5602 60.8254L40.5967 60.8689C39.5262 61.8507 38.2516 62.5799 36.9537 63.2238C35.6425 63.846 34.2749 64.3561 32.8625 64.724C31.4551 65.0903 29.9863 65.368 28.4992 65.2308C27.0353 65.1004 25.4935 64.5836 24.5076 63.463L24.5109 63.4613ZM35.4384 58.8234C35.4367 58.3083 35.8483 57.8935 36.3562 57.8885C36.8674 57.8868 37.279 58.2999 37.284 58.8134C37.2856 59.3268 36.874 59.7466 36.3662 59.7483C35.8566 59.75 35.4433 59.3352 35.4384 58.8234ZM28.144 81.8422C27.2245 75.3479 32.8526 68.9873 36.0259 65.7326C36.7462 64.995 37.8599 63.9781 38.8955 62.8977C43.0149 59.0158 43.8348 54.3779 35.4035 52.0598C33.8053 51.5931 32.1489 50.9325 30.4709 50.2651C30.4178 50.1096 30.358 49.9624 30.2883 49.8236C30.0958 49.4891 29.7589 49.1044 29.2493 48.6679C28.154 47.7095 26.0943 47.7346 24.3167 48.1595C22.3517 47.6928 20.4131 47.5272 18.5493 47.9771C10.3952 50.2417 9.08409 54.2491 8.76707 59.0776C8.33556 64.2959 8.0833 68.1845 6.12319 72.6267C3.67679 69.0709 2.23451 64.7575 2.21459 60.1029C2.15982 47.8467 11.9752 37.8668 24.1375 37.8116C36.2997 37.7564 46.2031 47.6477 46.2579 59.9039C46.3077 70.8505 38.4806 79.9841 28.1424 81.8456L28.144 81.8422Z" fill="#F5F5F5"/>
<path d="M24.107 54.5758C24.107 56.2433 22.766 57.593 21.113 57.593C19.4599 57.593 18.1172 56.2433 18.1172 54.5758C18.1172 52.9083 19.4582 51.5586 21.113 51.5586C22.7676 51.5586 24.107 52.9083 24.107 54.5758Z" fill="#F5F5F5"/>
<path d="M72.6054 56.9472C72.1167 55.022 70.8819 53.6146 68.4592 53.6146C64.8952 53.6146 63.4041 56.784 63.4041 59.9988C63.4041 63.2135 64.8952 66.3829 68.4592 66.3829C71.0453 66.3829 72.4655 64.4342 72.6989 61.9929H75.5403C75.3069 66.0063 72.4885 68.7772 68.4592 68.7772C63.474 68.7772 60.4922 64.7873 60.4922 59.9971C60.4922 55.2069 63.474 51.2188 68.4592 51.2188C72.2102 51.2422 75.168 53.3322 75.5168 56.9472H72.6054Z" fill="#F5F5F5"/>
<path d="M77.2656 62.3021C77.2656 58.593 79.4779 55.918 83.3457 55.918C87.2131 55.918 89.4253 58.5947 89.4253 62.3021C89.4253 66.0095 87.2131 68.7098 83.3457 68.7098C79.4779 68.7098 77.2656 66.033 77.2656 62.3021ZM86.7693 62.3021C86.7693 60.2122 85.7214 58.0297 83.3457 58.0297C80.9696 58.0297 79.9216 60.2122 79.9216 62.3021C79.9216 64.392 80.9696 66.598 83.3457 66.598C85.7214 66.598 86.7693 64.4156 86.7693 62.3021Z" fill="#F5F5F5"/>
<path d="M91.7109 51.625H94.367V54.1605H91.7109V51.625ZM91.7109 56.2488H94.367V68.3849H91.7109V56.2488Z" fill="#F5F5F5"/>
<path d="M97.2578 56.2458H99.7739V58.0297L99.8204 58.0768C100.613 56.7385 101.986 55.918 103.571 55.918C106.181 55.918 107.834 57.3269 107.834 60.0491V68.3819H105.178V60.7536C105.131 58.8519 104.385 58.0314 102.825 58.0314C101.055 58.0314 99.9138 59.4404 99.9138 61.2243V68.3836H97.2578V56.2475V56.2458Z" fill="#F5F5F5"/>
<path d="M125.516 68.3787H123.652L123.21 66.4065C121.65 68.1904 120.229 68.7772 118.201 68.7772C113.216 68.7772 110.234 64.7874 110.234 59.9972C110.234 55.207 113.216 51.2188 118.201 51.2188C121.835 51.2188 124.887 53.1675 125.329 56.9472H122.488C122.208 54.7412 120.299 53.6147 118.201 53.6147C114.637 53.6147 113.146 56.7841 113.146 59.9988C113.146 63.2136 114.637 66.383 118.201 66.383C121.183 66.43 122.813 64.6226 122.86 61.7828H118.433V59.5533H125.514V68.3787H125.516Z" fill="#F5F5F5"/>
<path d="M130.381 63.0066C130.381 64.9082 131.406 66.598 133.62 66.598C135.156 66.598 136.089 65.917 136.555 64.5786H139.071C138.488 67.2318 136.252 68.7097 133.62 68.7097C129.845 68.7097 127.727 66.0566 127.727 62.3256C127.727 58.8755 129.962 55.918 133.549 55.918C137.347 55.918 139.676 59.3681 139.234 63.0066H130.383H130.381ZM136.578 61.2462C136.484 59.5564 135.343 58.0297 133.549 58.0297C131.756 58.0297 130.451 59.4387 130.381 61.2462H136.578Z" fill="#F5F5F5"/>
<path d="M149.391 60.3063C149.181 58.8267 148.11 58.0297 146.643 58.0297C145.268 58.0297 143.334 58.7578 143.334 62.4433C143.334 64.4626 144.22 66.598 146.526 66.598C148.063 66.598 149.135 65.5656 149.391 63.8288H152.047C151.558 66.9746 149.625 68.7114 146.526 68.7114C142.752 68.7114 140.68 66.0112 140.68 62.4433C140.68 58.8755 142.661 55.918 146.62 55.918C149.414 55.918 151.791 57.3269 152.047 60.308H149.391V60.3063Z" fill="#F5F5F5"/>
<path d="M154.281 51.625H156.937V61.155L161.736 56.2488H164.996L160.384 60.7094L165.44 68.3849H162.201L158.521 62.4934L156.937 64.0419V68.3849H154.281V51.625Z" fill="#F5F5F5"/>
<path d="M166.156 62.3021C166.156 58.593 168.369 55.918 172.236 55.918C176.104 55.918 178.316 58.5947 178.316 62.3021C178.316 66.0095 176.104 68.7098 172.236 68.7098C168.369 68.7098 166.156 66.033 166.156 62.3021ZM175.66 62.3021C175.66 60.2122 174.612 58.0297 172.236 58.0297C169.86 58.0297 168.812 60.2122 168.812 62.3021C168.812 64.392 169.86 66.598 172.236 66.598C174.612 66.598 175.66 64.4156 175.66 62.3021Z" fill="#F5F5F5"/>
</svg>
