<svg width="79" height="64" viewBox="0 0 79 64" fill="none" xmlns="http://www.w3.org/2000/svg">
<path d="M0 24.5519C0 21.5957 2.38103 19.1992 5.31821 19.1992H20.1167C23.0539 19.1992 25.4349 21.5957 25.4349 24.5519V39.4465C25.4349 42.4027 23.0539 44.7992 20.1167 44.7992H5.31821C2.38103 44.7992 0 42.4027 0 39.4465V24.5519Z" fill="#F5F5F5"/>
<path d="M7.03564 34.4741L7.57902 36.1666C7.59761 36.2246 7.67919 36.2246 7.69783 36.1666L8.24116 34.4741C8.52543 33.5865 9.21699 32.8904 10.0989 32.6043L11.7805 32.0574C11.8381 32.0387 11.8381 31.9566 11.7805 31.9378L10.0989 31.391C9.21699 31.1048 8.52543 30.4088 8.24116 29.5211L7.69783 27.8287C7.67919 27.7706 7.59761 27.7706 7.57902 27.8287L7.03564 29.5211C6.75142 30.4088 6.05982 31.1048 5.17788 31.391L3.49634 31.9378C3.43872 31.9566 3.43872 32.0387 3.49634 32.0574L5.17788 32.6043C6.05982 32.8904 6.75012 33.5865 7.03564 34.4741Z" fill="#030303"/>
<path d="M17.1919 34.4741L17.7353 36.1666C17.7539 36.2246 17.8354 36.2246 17.8541 36.1666L18.3974 34.4741C18.6817 33.5865 19.3733 32.8904 20.2552 32.6043L21.9367 32.0574C21.9944 32.0387 21.9944 31.9566 21.9367 31.9378L20.2552 31.391C19.3733 31.1048 18.6817 30.4088 18.3974 29.5211L17.8541 27.8287C17.8354 27.7706 17.7539 27.7706 17.7353 27.8287L17.1919 29.5211C16.9076 30.4088 16.2161 31.1048 15.3342 31.391L13.6526 31.9378C13.595 31.9566 13.595 32.0387 13.6526 32.0574L15.3342 32.6043C16.2161 32.8904 16.9064 33.5865 17.1919 34.4741Z" fill="#030303"/>
<path d="M33.7578 25.4023H42.8654V27.3039H36.0252V31.0877H41.1506V32.9892H36.0252V38.8474H33.7578V25.4023Z" fill="#F5F5F5"/>
<path d="M44.8281 25.0195H46.9813V38.8487H44.8281V25.0195Z" fill="#F5F5F5"/>
<path d="M53.7476 38.9819C52.8334 38.9819 52.0139 38.7834 51.2897 38.3864C50.566 37.9767 50.0008 37.4068 49.5944 36.677C49.1879 35.9343 48.9844 35.0636 48.9844 34.0648C48.9844 33.0532 49.1939 32.1761 49.6133 31.4334C50.0323 30.6908 50.6104 30.1209 51.3471 29.724C52.0837 29.3142 52.9032 29.1094 53.805 29.1094C54.7197 29.1094 55.5387 29.3142 56.2629 29.724C56.9996 30.1209 57.5842 30.6908 58.0156 31.4334C58.4475 32.1633 58.6635 33.0276 58.6635 34.0264C58.6635 35.038 58.4415 35.9151 57.9967 36.6578C57.5647 37.4005 56.9742 37.9767 56.225 38.3864C55.4879 38.7834 54.6624 38.9819 53.7476 38.9819ZM53.7287 37.0419C54.1736 37.0419 54.5925 36.9331 54.9861 36.7154C55.3926 36.4977 55.7232 36.1712 55.9771 35.7358C56.231 35.2877 56.3582 34.7179 56.3582 34.0264C56.3582 33.3606 56.2375 32.8099 55.9961 32.3746C55.7547 31.9264 55.4374 31.5935 55.0434 31.3758C54.6499 31.1581 54.224 31.0493 53.7671 31.0493C53.3222 31.0493 52.9097 31.1581 52.5286 31.3758C52.16 31.5935 51.8613 31.9264 51.6328 32.3746C51.4044 32.8099 51.2897 33.3734 51.2897 34.0648C51.2897 34.7307 51.3979 35.2877 51.6139 35.7358C51.8423 36.1712 52.1411 36.4977 52.5092 36.7154C52.8778 36.9331 53.2843 37.0419 53.7287 37.0419Z" fill="#F5F5F5"/>
<path d="M64.9273 38.9819C64.0126 38.9819 63.1936 38.7834 62.4694 38.3864C61.7452 37.9767 61.1801 37.4068 60.7736 36.677C60.3671 35.9343 60.1641 35.0636 60.1641 34.0648C60.1641 33.0532 60.3736 32.1761 60.7925 31.4334C61.212 30.6908 61.79 30.1209 62.5267 29.724C63.2634 29.3142 64.0824 29.1094 64.9847 29.1094C65.8989 29.1094 66.7184 29.3142 67.4426 29.724C68.1793 30.1209 68.7634 30.6908 69.1953 31.4334C69.6272 32.1633 69.8432 33.0276 69.8432 34.0264C69.8432 35.038 69.6208 35.9151 69.1763 36.6578C68.7444 37.4005 68.1539 37.9767 67.4042 38.3864C66.6675 38.7834 65.8421 38.9819 64.9273 38.9819ZM64.9084 37.0419C65.3528 37.0419 65.7722 36.9331 66.1658 36.7154C66.5723 36.4977 66.9025 36.1712 67.1568 35.7358C67.4107 35.2877 67.5379 34.7179 67.5379 34.0264C67.5379 33.3606 67.4172 32.8099 67.1758 32.3746C66.9344 31.9264 66.6167 31.5935 66.2231 31.3758C65.8291 31.1581 65.4036 31.0493 64.9463 31.0493C64.5019 31.0493 64.0889 31.1581 63.7078 31.3758C63.3397 31.5935 63.041 31.9264 62.8125 32.3746C62.5836 32.8099 62.4694 33.3734 62.4694 34.0648C62.4694 34.7307 62.5776 35.2877 62.7931 35.7358C63.022 36.1712 63.3203 36.4977 63.6889 36.7154C64.057 36.9331 64.4635 37.0419 64.9084 37.0419Z" fill="#F5F5F5"/>
<path d="M78.891 30.9516L74.1277 36.9443H78.891V38.8458H71.4219V37.1363L76.2046 31.1437H71.4219V29.2422H78.891V30.9516Z" fill="#F5F5F5"/>
</svg>
