<svg width="149" height="120" viewBox="0 0 149 120" fill="none" xmlns="http://www.w3.org/2000/svg">
<path d="M0 46.0364C0 40.4934 4.49081 36 10.0305 36H37.9416C43.4814 36 47.9722 40.4934 47.9722 46.0364V73.9636C47.9722 79.5066 43.4814 84 37.9416 84H10.0305C4.49081 84 0 79.5066 0 73.9636V46.0364Z" fill="#F5F5F5"/>
<path d="M13.2803 64.6434L14.3052 67.8167C14.3403 67.9254 14.4941 67.9254 14.5293 67.8167L15.554 64.6434C16.0902 62.979 17.3945 61.6738 19.0579 61.1375L22.2294 60.112C22.3382 60.0769 22.3382 59.923 22.2294 59.8878L19.0579 58.8624C17.3945 58.326 16.0902 57.0209 15.554 55.3565L14.5293 52.1832C14.4941 52.0744 14.3403 52.0744 14.3052 52.1832L13.2803 55.3565C12.7443 57.0209 11.4399 58.326 9.77645 58.8624L6.60495 59.8878C6.49627 59.923 6.49627 60.0769 6.60495 60.112L9.77645 61.1375C11.4399 61.6738 12.7418 62.979 13.2803 64.6434Z" fill="#030303"/>
<path d="M32.4132 64.6434L33.438 67.8167C33.4731 67.9254 33.6269 67.9254 33.662 67.8167L34.6869 64.6434C35.223 62.979 36.5274 61.6738 38.1907 61.1375L41.3623 60.112C41.471 60.0769 41.471 59.923 41.3623 59.8878L38.1907 58.8624C36.5274 58.326 35.223 57.0209 34.6869 55.3565L33.662 52.1832C33.6269 52.0744 33.4731 52.0744 33.438 52.1832L32.4132 55.3565C31.877 57.0209 30.5727 58.326 28.9093 58.8624L25.7378 59.8878C25.6291 59.923 25.6291 60.0769 25.7378 60.112L28.9093 61.1375C30.5727 61.6738 31.8747 62.979 32.4132 64.6434Z" fill="#030303"/>
<path d="M63.6719 47.6289H80.8494V51.1943H67.9484V58.2889H77.6152V61.8543H67.9484V72.8383H63.6719V47.6289Z" fill="#F5F5F5"/>
<path d="M84.5469 46.9102H88.6079V72.8398H84.5469V46.9102Z" fill="#F5F5F5"/>
<path d="M101.375 73.089C99.6501 73.089 98.1046 72.7169 96.7387 71.9726C95.3736 71.2043 94.3078 70.1359 93.5411 68.7674C92.7744 67.3748 92.3906 65.7422 92.3906 63.8695C92.3906 61.9728 92.7857 60.3283 93.5769 58.9357C94.3671 57.5432 95.4574 56.4748 96.8468 55.7305C98.2363 54.9622 99.7818 54.5781 101.483 54.5781C103.208 54.5781 104.753 54.9622 106.119 55.7305C107.508 56.4748 108.61 57.5432 109.424 58.9357C110.239 60.3043 110.646 61.9248 110.646 63.7975C110.646 65.6942 110.228 67.3389 109.388 68.7314C108.574 70.1239 107.46 71.2043 106.047 71.9726C104.657 72.7169 103.1 73.089 101.375 73.089ZM101.339 69.4517C102.178 69.4517 102.968 69.2476 103.71 68.8394C104.477 68.4313 105.101 67.8191 105.579 67.0027C106.058 66.1624 106.298 65.0941 106.298 63.7975C106.298 62.5491 106.071 61.5167 105.615 60.7004C105.16 59.86 104.562 59.2359 103.818 58.8277C103.076 58.4195 102.273 58.2155 101.411 58.2155C100.572 58.2155 99.794 58.4195 99.0753 58.8277C98.3802 59.2359 97.8167 59.86 97.3858 60.7004C96.955 61.5167 96.7387 62.5731 96.7387 63.8695C96.7387 65.1181 96.9427 66.1624 97.3501 67.0027C97.781 67.8191 98.3444 68.4313 99.0387 68.8394C99.7339 69.2476 100.501 69.4517 101.339 69.4517Z" fill="#F5F5F5"/>
<path d="M122.46 73.089C120.735 73.089 119.19 72.7169 117.825 71.9726C116.459 71.2043 115.393 70.1359 114.626 68.7674C113.859 67.3748 113.477 65.7422 113.477 63.8695C113.477 61.9728 113.872 60.3283 114.662 58.9357C115.453 57.5432 116.543 56.4748 117.933 55.7305C119.322 54.9622 120.867 54.5781 122.569 54.5781C124.293 54.5781 125.839 54.9622 127.204 55.7305C128.594 56.4748 129.696 57.5432 130.51 58.9357C131.325 60.3043 131.732 61.9248 131.732 63.7975C131.732 65.6942 131.313 67.3389 130.474 68.7314C129.66 70.1239 128.546 71.2043 127.132 71.9726C125.743 72.7169 124.186 73.089 122.46 73.089ZM122.425 69.4517C123.263 69.4517 124.054 69.2476 124.796 68.8394C125.563 68.4313 126.186 67.8191 126.665 67.0027C127.144 66.1624 127.384 65.0941 127.384 63.7975C127.384 62.5491 127.156 61.5167 126.701 60.7004C126.246 59.86 125.647 59.2359 124.904 58.8277C124.161 58.4195 123.359 58.2155 122.496 58.2155C121.658 58.2155 120.879 58.4195 120.16 58.8277C119.466 59.2359 118.903 59.86 118.472 60.7004C118.04 61.5167 117.825 62.5731 117.825 63.8695C117.825 65.1181 118.029 66.1624 118.435 67.0027C118.867 67.8191 119.429 68.4313 120.125 68.8394C120.819 69.2476 121.586 69.4517 122.425 69.4517Z" fill="#F5F5F5"/>
<path d="M148.806 58.0372L139.822 69.2735H148.806V72.8388H134.719V69.6336L143.739 58.3974H134.719V54.832H148.806V58.0372Z" fill="#F5F5F5"/>
</svg>
