<svg width="147" height="120" viewBox="0 0 147 120" fill="none" xmlns="http://www.w3.org/2000/svg">
<path fill-rule="evenodd" clip-rule="evenodd" d="M3.06353 75.6887C1.99106 75.6887 1.45483 75.6887 1.04516 75.4801C0.685448 75.2954 0.392351 75.0021 0.208499 74.6407C0 74.2301 0 73.6921 0 72.6167V44.3281H4.91271C5.98518 44.3281 6.52141 44.3281 6.93108 44.5375C7.29079 44.7215 7.58389 45.0155 7.76774 45.3768C7.97624 45.7875 7.97624 46.3248 7.97624 47.4001V66.7927C7.97624 67.3307 7.97624 67.5994 8.08082 67.8047C8.17208 67.9854 8.31863 68.1321 8.49916 68.2241C8.70366 68.3287 8.97211 68.3287 9.50768 68.3287H20.9538C22.0263 68.3287 22.5625 68.3287 22.9722 68.5381C23.3319 68.7221 23.625 69.0161 23.8088 69.3774C24.0173 69.7881 24.0173 70.3254 24.0173 71.4007V75.6887H3.06353Z" fill="#F5F5F5"/>
<path fill-rule="evenodd" clip-rule="evenodd" d="M87.4375 47.4001C87.4375 46.3248 87.4375 45.7875 87.646 45.3768C87.8292 45.0155 88.1223 44.7215 88.4827 44.5375C88.8923 44.3281 89.4286 44.3281 90.5004 44.3281H93.3201C93.9669 44.3281 94.29 44.3281 94.5797 44.4228C94.8355 44.5061 95.0707 44.6435 95.2705 44.8248C95.4963 45.0295 95.6569 45.3108 95.9786 45.8735L105.786 63.0488V47.4001C105.786 46.3248 105.786 45.7875 105.995 45.3768C106.178 45.0155 106.471 44.7215 106.831 44.5375C107.241 44.3281 107.777 44.3281 108.85 44.3281H113.445V72.6121C113.445 73.6867 113.445 74.2234 113.236 74.6341C113.053 74.9954 112.76 75.2887 112.4 75.4734C111.991 75.6827 111.455 75.6834 110.384 75.6841L107.564 75.6874C106.916 75.6881 106.593 75.6881 106.303 75.5934C106.047 75.5101 105.811 75.3734 105.611 75.1921C105.385 74.9867 105.224 74.7054 104.902 74.1421L95.096 56.9688V72.6167C95.096 73.6921 95.096 74.2301 94.8868 74.6407C94.7036 75.0021 94.4106 75.2954 94.0502 75.4801C93.6405 75.6887 93.1049 75.6887 92.0325 75.6887H87.4375V47.4001Z" fill="#F5F5F5"/>
<path fill-rule="evenodd" clip-rule="evenodd" d="M121.697 44.3281H117.102V72.6087C117.102 73.6841 117.102 74.2221 117.31 74.6327C117.494 74.9941 117.787 75.2874 118.147 75.4721C118.556 75.6807 119.093 75.6807 120.165 75.6807H124.76V62.8888H126.014C126.549 62.8888 126.818 62.8888 127.066 62.9568C127.285 63.0168 127.492 63.1154 127.676 63.2488C127.886 63.3988 128.054 63.6074 128.392 64.0247L136.914 74.5534C137.252 74.9701 137.421 75.1787 137.63 75.3294C137.814 75.4621 138.021 75.5607 138.241 75.6214C138.489 75.6887 138.757 75.6887 139.293 75.6887H146.539L135.268 61.7881C134.707 61.0968 134.427 60.7508 134.32 60.3668C134.225 60.0281 134.225 59.6694 134.32 59.3308C134.428 58.9468 134.708 58.6014 135.268 57.9108L135.269 57.9101L146.295 44.3281H139.126C138.593 44.3281 138.326 44.3281 138.079 44.3955C137.861 44.4555 137.654 44.5535 137.47 44.6855C137.261 44.8341 137.093 45.0415 136.755 45.4561L128.421 55.6808C128.083 56.0954 127.914 56.3021 127.706 56.4514C127.522 56.5834 127.315 56.6814 127.097 56.7414C126.85 56.8088 126.583 56.8088 126.049 56.8088H124.76V47.4001C124.76 46.3248 124.76 45.7875 124.552 45.3768C124.368 45.0155 124.075 44.7215 123.715 44.5375C123.305 44.3281 122.769 44.3281 121.697 44.3281Z" fill="#F5F5F5"/>
<path fill-rule="evenodd" clip-rule="evenodd" d="M27.6616 74.9519C27.4531 74.5413 27.4531 74.0033 27.4531 72.9279V47.072C27.4531 45.9967 27.4531 45.4593 27.6616 45.0487C27.8455 44.6873 28.1379 44.3933 28.4983 44.2093C28.908 44 29.4442 44 30.5167 44H40.5366C43.2071 44 44.5427 44 45.6385 44.2947C48.6114 45.0933 50.9342 47.422 51.7309 50.404C52.024 51.5027 52.024 52.842 52.024 55.52C52.024 57.2633 51.2366 57.9026 50.5652 58.4466C50.0662 58.8513 49.6313 59.204 49.6313 59.9206C49.6313 60.6266 50.1382 60.9793 50.7257 61.3886C51.5371 61.9533 52.503 62.6253 52.503 64.4806C52.503 67.154 52.503 68.4913 52.2105 69.5879C51.4145 72.5719 49.091 74.9026 46.1161 75.7013C45.0223 75.9953 43.6894 75.9959 41.0229 75.9966L30.5173 75.9999C29.4449 76.0006 28.9086 76.0006 28.4989 75.7913C28.1386 75.6073 27.8455 75.3133 27.6616 74.9519ZM41.735 54.4933C42.3358 53.5466 42.8567 52.7273 42.8567 51.68C42.8567 49.5593 41.1388 47.84 39.0198 47.84C36.9002 47.84 35.1822 49.64 35.1822 51.68C35.1822 52.7273 35.7171 53.5466 36.3346 54.4933C37.18 55.7873 38.1798 57.32 38.1798 60.0006C38.1798 62.6806 37.18 64.2133 36.3346 65.508C35.7171 66.454 35.1822 67.2733 35.1822 68.3206C35.1822 70.4413 36.9002 72.1606 39.0198 72.1606C41.1388 72.1606 42.8567 70.4413 42.8567 68.3206C42.8567 67.2733 42.3358 66.454 41.735 65.508C40.9123 64.2133 39.9391 62.6806 39.9391 60.0006C39.9391 57.32 40.9123 55.7873 41.735 54.4933Z" fill="#F5F5F5"/>
<path fill-rule="evenodd" clip-rule="evenodd" d="M64.1888 69.4408L62.8825 73.5434C62.638 74.3114 62.5161 74.6954 62.283 74.9794C62.0778 75.2308 61.812 75.4254 61.5109 75.5454C61.1705 75.6808 60.7682 75.6808 59.9642 75.6808H54.1875L63.46 46.3055C63.7032 45.5348 63.8244 45.1495 64.0576 44.8642C64.2627 44.6122 64.5292 44.4168 64.8303 44.2968C65.172 44.1602 65.5743 44.1602 66.3804 44.1602H72.7432C73.5492 44.1602 73.9523 44.1602 74.2933 44.2968C74.5951 44.4168 74.8609 44.6122 75.066 44.8642C75.2992 45.1495 75.4204 45.5342 75.6635 46.3048L84.9414 75.6808H79.1614C78.3574 75.6808 77.9557 75.6808 77.6146 75.5454C77.3142 75.4254 77.0484 75.2308 76.8426 74.9794C76.6101 74.6954 76.4875 74.3114 76.2431 73.5434L74.9368 69.4408H64.1888ZM65.8181 64.3208H73.3068L69.5618 52.5601L65.8181 64.3208Z" fill="#F5F5F5"/>
</svg>
