<svg width="78" height="64" viewBox="0 0 78 64" fill="none" xmlns="http://www.w3.org/2000/svg">
<path fill-rule="evenodd" clip-rule="evenodd" d="M1.62555 40.3663C1.05648 40.3663 0.77195 40.3663 0.554574 40.255C0.363707 40.1565 0.208186 40.0001 0.110632 39.8073C0 39.5883 0 39.3014 0 38.7279V23.6406H2.60674C3.17581 23.6406 3.46034 23.6406 3.67772 23.7523C3.86858 23.8504 4.02411 24.0072 4.12166 24.1999C4.23229 24.4189 4.23229 24.7055 4.23229 25.279V35.6218C4.23229 35.9087 4.23229 36.052 4.28778 36.1615C4.33621 36.2578 4.41397 36.3361 4.50976 36.3851C4.61827 36.441 4.76071 36.441 5.04489 36.441H11.1183C11.6874 36.441 11.9719 36.441 12.1893 36.5526C12.3802 36.6507 12.5357 36.8075 12.6333 37.0002C12.7439 37.2193 12.7439 37.5058 12.7439 38.0793V40.3663H1.62555Z" fill="#F5F5F5"/>
<path fill-rule="evenodd" clip-rule="evenodd" d="M46.3906 25.279C46.3906 24.7055 46.3906 24.4189 46.5013 24.1999C46.5985 24.0072 46.754 23.8504 46.9452 23.7523C47.1626 23.6406 47.4471 23.6406 48.0158 23.6406H49.512C49.8552 23.6406 50.0266 23.6406 50.1804 23.6911C50.3161 23.7356 50.4409 23.8088 50.5469 23.9055C50.6667 24.0147 50.7519 24.1647 50.9226 24.4648L56.1266 33.625V25.279C56.1266 24.7055 56.1266 24.4189 56.2372 24.1999C56.3348 24.0072 56.4899 23.8504 56.6812 23.7523C56.8985 23.6406 57.1831 23.6406 57.7521 23.6406H60.1903V38.7254C60.1903 39.2985 60.1903 39.5848 60.0797 39.8038C59.9825 39.9965 59.8273 40.1529 59.6361 40.2514C59.419 40.3631 59.1349 40.3634 58.5665 40.3638L57.07 40.3656C56.7264 40.3659 56.5546 40.3659 56.4009 40.3154C56.2648 40.271 56.1397 40.1981 56.0336 40.1014C55.9138 39.9919 55.8283 39.8418 55.6576 39.5414L50.4543 30.3823V38.7279C50.4543 39.3014 50.4543 39.5883 50.3433 39.8073C50.2461 40.0001 50.0906 40.1565 49.8994 40.255C49.682 40.3663 49.3978 40.3663 48.8288 40.3663H46.3906V25.279Z" fill="#F5F5F5"/>
<path fill-rule="evenodd" clip-rule="evenodd" d="M64.5788 23.6406H62.1406V38.7236C62.1406 39.2971 62.1406 39.5841 62.2513 39.8031C62.3488 39.9958 62.5043 40.1522 62.6952 40.2507C62.9126 40.362 63.1971 40.362 63.7662 40.362H66.2043V33.5396H66.8695C67.1537 33.5396 67.2962 33.5396 67.4276 33.5759C67.5439 33.6079 67.6538 33.6605 67.7518 33.7316C67.8627 33.8116 67.9522 33.9229 68.1314 34.1455L72.6535 39.7608C72.8327 39.983 72.9225 40.0943 73.0331 40.1746C73.131 40.2454 73.2409 40.298 73.3576 40.3304C73.4891 40.3663 73.6312 40.3663 73.9157 40.3663H77.7606L71.7797 32.9526C71.4825 32.5839 71.3337 32.3994 71.2768 32.1946C71.2266 32.0139 71.2266 31.8227 71.2768 31.642C71.334 31.4372 71.4828 31.2531 71.7801 30.8847L71.7805 30.8843L77.6309 23.6406H73.8273C73.5442 23.6406 73.4028 23.6406 73.2717 23.6765C73.1558 23.7085 73.0462 23.7608 72.9483 23.8312C72.8376 23.9105 72.7482 24.0211 72.569 24.2422L68.1469 29.6954C67.9677 29.9165 67.8779 30.0267 67.7677 30.1064C67.6698 30.1768 67.5602 30.2291 67.4442 30.2611C67.3131 30.297 67.1714 30.297 66.8883 30.297H66.2043V25.279C66.2043 24.7055 66.2043 24.4189 66.0937 24.1999C65.9961 24.0072 65.841 23.8504 65.6497 23.7523C65.4324 23.6406 65.1478 23.6406 64.5788 23.6406Z" fill="#F5F5F5"/>
<path fill-rule="evenodd" clip-rule="evenodd" d="M14.6731 39.9725C14.5625 39.7535 14.5625 39.4666 14.5625 38.8931V25.1032C14.5625 24.5297 14.5625 24.2432 14.6731 24.0241C14.7707 23.8314 14.9259 23.6746 15.1171 23.5765C15.3345 23.4648 15.619 23.4648 16.188 23.4648H21.5047C22.9218 23.4648 23.6304 23.4648 24.2119 23.622C25.7894 24.048 27.0219 25.2899 27.4446 26.8803C27.6001 27.4663 27.6001 28.1806 27.6001 29.6088C27.6001 30.5386 27.1823 30.8796 26.826 31.1697C26.5613 31.3855 26.3305 31.5736 26.3305 31.9558C26.3305 32.3324 26.5995 32.5205 26.9112 32.7388C27.3417 33.0399 27.8542 33.3983 27.8542 34.3878C27.8542 35.8136 27.8542 36.5269 27.6991 37.1117C27.2767 38.7032 26.0438 39.9462 24.4653 40.3722C23.8849 40.529 23.1777 40.5293 21.7628 40.5297L16.1884 40.5315C15.6193 40.5318 15.3348 40.5318 15.1174 40.4202C14.9262 40.3221 14.7707 40.1653 14.6731 39.9725ZM22.1406 29.0613C22.4594 28.5564 22.7358 28.1194 22.7358 27.5608C22.7358 26.4298 21.8243 25.5128 20.6999 25.5128C19.5752 25.5128 18.6637 26.4728 18.6637 27.5608C18.6637 28.1194 18.9475 28.5564 19.2751 29.0613C19.7237 29.7514 20.2542 30.5688 20.2542 31.9985C20.2542 33.4278 19.7237 34.2453 19.2751 34.9358C18.9475 35.4403 18.6637 35.8773 18.6637 36.4358C18.6637 37.5669 19.5752 38.4838 20.6999 38.4838C21.8243 38.4838 22.7358 37.5669 22.7358 36.4358C22.7358 35.8773 22.4594 35.4403 22.1406 34.9358C21.7041 34.2453 21.1877 33.4278 21.1877 31.9985C21.1877 30.5688 21.7041 29.7514 22.1406 29.0613Z" fill="#F5F5F5"/>
<path fill-rule="evenodd" clip-rule="evenodd" d="M34.0568 37.0338L33.3637 39.2219C33.234 39.6315 33.1693 39.8363 33.0456 39.9877C32.9367 40.1218 32.7957 40.2256 32.6359 40.2896C32.4553 40.3618 32.2418 40.3618 31.8152 40.3618H28.75L33.6701 24.695C33.7991 24.2839 33.8635 24.0784 33.9872 23.9262C34.096 23.7918 34.2374 23.6877 34.3972 23.6237C34.5785 23.5508 34.792 23.5508 35.2197 23.5508H38.5959C39.0236 23.5508 39.2374 23.5508 39.4184 23.6237C39.5785 23.6877 39.7195 23.7918 39.8284 23.9262C39.9521 24.0784 40.0164 24.2836 40.1454 24.6946L45.0684 40.3618H42.0015C41.5748 40.3618 41.3617 40.3618 41.1807 40.2896C41.0213 40.2256 40.8803 40.1218 40.7711 39.9877C40.6477 39.8363 40.5827 39.6315 40.453 39.2219L39.7598 37.0338H34.0568ZM34.9214 34.3031H38.8949L36.9078 28.0308L34.9214 34.3031Z" fill="#F5F5F5"/>
</svg>
